<svg width="295" height="65" viewBox="0 0 295 65" fill="none" xmlns="http://www.w3.org/2000/svg">
<path d="M15.3183 52.568C12.8436 52.568 10.4756 52.1413 8.21425 51.288C5.99558 50.4347 4.18225 49.1333 2.77425 47.384C1.36625 45.6347 0.66225 43.4587 0.66225 40.856C0.66225 38.552 1.17425 36.76 2.19825 35.48C3.22225 34.1573 4.50225 33.24 6.03825 32.728C7.57425 32.216 9.06758 31.96 10.5183 31.96C9.15292 33.4107 8.10758 34.904 7.38225 36.44C6.69958 37.976 6.35825 39.448 6.35825 40.856C6.35825 42.3067 6.72092 43.672 7.44625 44.952C8.21425 46.1893 9.34492 47.192 10.8383 47.96C12.3316 48.7707 14.1876 49.176 16.4062 49.176C18.3263 49.176 20.1823 48.856 21.9743 48.216C23.8089 47.576 25.3023 46.616 26.4543 45.336C27.6489 44.056 28.2463 42.456 28.2463 40.536C28.2463 38.7867 27.7343 37.2933 26.7103 36.056C25.7289 34.776 24.4489 33.6453 22.8703 32.664C21.2916 31.64 19.6276 30.68 17.8783 29.784C16.1289 28.8453 14.4649 27.8427 12.8863 26.776C11.3076 25.7093 10.0063 24.472 8.98225 23.064C8.00092 21.656 7.51025 19.9707 7.51025 18.008C7.51025 16.2587 7.93692 14.4027 8.79025 12.44C9.68625 10.4347 10.9449 8.55733 12.5663 6.808C14.1876 5.05866 16.1503 3.65067 18.4543 2.584C20.7583 1.47467 23.3183 0.919998 26.1343 0.919998C29.0783 0.919998 31.1476 1.53866 32.3423 2.776C33.5369 4.01333 34.1343 5.63466 34.1343 7.64C34.1343 9.21867 33.8569 10.904 33.3022 12.696C32.7476 14.488 32.0649 16.1947 31.2543 17.816C30.4863 19.4373 29.7396 20.824 29.0143 21.976C27.1369 21.592 26.1983 20.504 26.1983 18.712C26.1983 17.816 26.3689 16.8133 26.7103 15.704C27.0943 14.5947 27.5209 13.4427 27.9903 12.248C28.5023 11.0533 28.9289 9.90133 29.2703 8.792C29.6543 7.64 29.8463 6.63733 29.8463 5.784C29.8463 5.016 29.6116 4.41866 29.1423 3.992C28.7156 3.56533 27.8196 3.352 26.4543 3.352C24.4063 3.352 22.5289 3.8 20.8223 4.696C19.1156 5.592 17.6223 6.72266 16.3423 8.088C15.1049 9.45333 14.1449 10.904 13.4623 12.44C12.7796 13.9333 12.4383 15.2987 12.4383 16.536C12.4383 18.072 12.9289 19.3947 13.9103 20.504C14.8916 21.5707 16.1503 22.552 17.6863 23.448C19.2649 24.344 20.9076 25.24 22.6143 26.136C24.3636 27.032 26.0063 28.0347 27.5423 29.144C29.1209 30.2533 30.4009 31.576 31.3823 33.112C32.3636 34.648 32.8543 36.5253 32.8543 38.744C32.8543 40.9627 32.3423 42.9253 31.3183 44.632C30.3369 46.3387 28.9929 47.768 27.2863 48.92C25.5796 50.1147 23.6809 51.0107 21.5903 51.608C19.5423 52.248 17.4516 52.568 15.3183 52.568ZM49.3908 20.056C48.5801 20.056 47.8334 19.864 47.1508 19.48C46.5108 19.0533 46.1908 18.4133 46.1908 17.56C46.1908 16.536 46.7454 15.6613 47.8548 14.936C48.9641 14.2107 50.1161 13.848 51.3108 13.848C52.0788 13.848 52.7188 14.0187 53.2308 14.36C53.7854 14.7013 54.0628 15.32 54.0628 16.216C54.0628 17.112 53.5721 17.9867 52.5908 18.84C51.6094 19.6507 50.5428 20.056 49.3908 20.056ZM41.8388 48.92C39.9614 48.92 38.5534 48.3653 37.6148 47.256C36.6761 46.1467 36.2067 44.8027 36.2067 43.224C36.2067 42.2427 36.3774 41.0053 36.7188 39.512C37.0601 38.0187 37.5294 36.4613 38.1268 34.84C38.7668 33.176 39.4921 31.6187 40.3028 30.168C41.1134 28.7173 41.9881 27.544 42.9268 26.648C43.8654 25.7093 44.8041 25.24 45.7428 25.24C46.2548 25.24 46.7028 25.4107 47.0868 25.752C47.4708 26.0507 47.6628 26.4987 47.6628 27.096C47.6628 27.6507 47.3214 28.4827 46.6388 29.592C45.9988 30.7013 45.2308 31.9813 44.3348 33.432C43.4814 34.8827 42.7134 36.3973 42.0308 37.976C41.3908 39.512 41.0708 40.984 41.0708 42.392C41.0708 43.7573 41.3054 44.6747 41.7748 45.144C42.2868 45.5707 43.0121 45.784 43.9508 45.784C45.4014 45.784 46.9801 45.0587 48.6868 43.608C50.3934 42.1573 52.1641 39.6187 53.9988 35.992L54.9588 37.016C53.4654 40.7707 51.5668 43.6933 49.2628 45.784C46.9588 47.8747 44.4841 48.92 41.8388 48.92ZM57.8478 48.92C55.8424 48.92 54.4344 48.2587 53.6238 46.936C52.8558 45.5707 52.4718 43.9707 52.4718 42.136C52.4718 40.0453 52.8558 37.592 53.6238 34.776C54.3918 31.96 55.3944 29.016 56.6318 25.944C57.9118 22.8293 59.2984 19.8 60.7917 16.856C62.3278 13.8693 63.8638 11.1813 65.3998 8.792C66.9358 6.40266 68.3438 4.504 69.6238 3.096C70.9464 1.64533 72.0131 0.919998 72.8238 0.919998C73.3784 0.919998 73.8478 1.21866 74.2318 1.816C74.6158 2.37067 74.9144 3.05333 75.1278 3.864C75.3838 4.632 75.5118 5.35733 75.5118 6.04C75.5118 7.192 75.2131 8.70667 74.6158 10.584C74.0611 12.4187 73.2504 14.4453 72.1838 16.664C71.1598 18.8827 69.9224 21.1653 68.4718 23.512C67.0638 25.816 65.4851 28.0133 63.7358 30.104C62.0291 32.1947 60.1944 34.008 58.2318 35.544C58.0611 36.6107 57.8904 37.6773 57.7198 38.744C57.5918 39.768 57.5278 40.7067 57.5278 41.56C57.5278 43.096 57.7838 44.2267 58.2958 44.952C58.8078 45.6347 59.4691 45.976 60.2798 45.976C61.3464 45.976 62.4344 45.4853 63.5438 44.504C64.6958 43.48 65.7838 42.2 66.8078 40.664C67.8744 39.0853 68.7918 37.464 69.5598 35.8L71.0958 36.632C69.2611 40.4293 67.2131 43.4373 64.9518 45.656C62.6904 47.832 60.3224 48.92 57.8478 48.92ZM59.3838 31.576C61.1758 29.6133 62.8611 27.4373 64.4398 25.048C66.0184 22.6587 67.4051 20.2907 68.5998 17.944C69.8371 15.5547 70.7971 13.4 71.4798 11.48C72.1624 9.51733 72.5251 8.00267 72.5678 6.936V6.744C72.2264 6.744 71.6718 7.23467 70.9038 8.216C70.1784 9.15466 69.3038 10.456 68.2798 12.12C67.2558 13.784 66.1891 15.6827 65.0798 17.816C64.0131 19.9493 62.9678 22.2107 61.9438 24.6C60.9624 26.9467 60.1091 29.272 59.3838 31.576ZM80.7033 20.056C79.8926 20.056 79.1459 19.864 78.4633 19.48C77.8233 19.0533 77.5033 18.4133 77.5033 17.56C77.5033 16.536 78.0579 15.6613 79.1673 14.936C80.2766 14.2107 81.4286 13.848 82.6233 13.848C83.3913 13.848 84.0313 14.0187 84.5433 14.36C85.0979 14.7013 85.3753 15.32 85.3753 16.216C85.3753 17.112 84.8846 17.9867 83.9033 18.84C82.9219 19.6507 81.8553 20.056 80.7033 20.056ZM73.1513 48.92C71.2739 48.92 69.8659 48.3653 68.9273 47.256C67.9886 46.1467 67.5192 44.8027 67.5192 43.224C67.5192 42.2427 67.6899 41.0053 68.0312 39.512C68.3726 38.0187 68.8419 36.4613 69.4393 34.84C70.0793 33.176 70.8046 31.6187 71.6153 30.168C72.4259 28.7173 73.3006 27.544 74.2393 26.648C75.1779 25.7093 76.1166 25.24 77.0553 25.24C77.5673 25.24 78.0153 25.4107 78.3993 25.752C78.7833 26.0507 78.9753 26.4987 78.9753 27.096C78.9753 27.6507 78.6339 28.4827 77.9513 29.592C77.3113 30.7013 76.5433 31.9813 75.6473 33.432C74.7939 34.8827 74.0259 36.3973 73.3433 37.976C72.7033 39.512 72.3833 40.984 72.3833 42.392C72.3833 43.7573 72.6179 44.6747 73.0873 45.144C73.5993 45.5707 74.3246 45.784 75.2633 45.784C76.7139 45.784 78.2926 45.0587 79.9993 43.608C81.7059 42.1573 83.4766 39.6187 85.3113 35.992L86.2713 37.016C84.7779 40.7707 82.8793 43.6933 80.5753 45.784C78.2713 47.8747 75.7966 48.92 73.1513 48.92ZM90.8883 50.584C88.6696 50.584 86.8349 49.88 85.3843 48.472C83.9763 47.1067 83.2722 44.9947 83.2722 42.136C83.2722 40.0453 83.6776 37.9973 84.4883 35.992C85.2989 33.9867 86.3869 32.1947 87.7523 30.616C89.1176 28.9947 90.6323 27.7147 92.2963 26.776C94.0029 25.8373 95.7309 25.368 97.4803 25.368C99.2723 25.368 100.552 25.816 101.32 26.712C102.131 27.608 102.536 28.6533 102.536 29.848C102.536 31.0427 102.238 32.216 101.64 33.368C101.086 34.4773 100.318 35.032 99.3363 35.032C98.5256 35.032 97.8643 34.6267 97.3523 33.816C97.7789 33.5173 98.2269 32.9627 98.6963 32.152C99.1656 31.3413 99.4003 30.296 99.4003 29.016C99.4003 28.2907 98.9949 27.928 98.1843 27.928C97.1176 27.928 95.9869 28.4187 94.7923 29.4C93.6403 30.3387 92.5523 31.576 91.5283 33.112C90.5469 34.6053 89.7363 36.2053 89.0963 37.912C88.4989 39.576 88.2003 41.112 88.2003 42.52C88.2003 43.7147 88.4989 44.824 89.0963 45.848C89.7363 46.8293 90.9523 47.32 92.7443 47.32C94.3656 47.32 96.0509 46.8507 97.8003 45.912C99.5496 44.9733 101.192 43.672 102.728 42.008C104.264 40.3013 105.502 38.2747 106.44 35.928L107.72 37.08C106.696 39.6827 105.267 42.008 103.432 44.056C101.64 46.0613 99.6349 47.64 97.4163 48.792C95.2403 49.9867 93.0643 50.584 90.8883 50.584ZM109.193 49.048C107.273 49.048 105.95 48.408 105.225 47.128C104.542 45.8907 104.201 44.5253 104.201 43.032C104.201 41.6667 104.414 40.28 104.841 38.872C105.267 37.4213 105.843 36.0773 106.569 34.84C107.337 33.6027 108.169 32.6213 109.065 31.896C110.003 31.128 110.942 30.744 111.881 30.744C112.179 30.744 112.521 30.808 112.905 30.936C113.331 31.0213 113.63 31.1707 113.801 31.384C113.118 32.2373 112.414 33.3467 111.689 34.712C111.006 36.0347 110.43 37.4213 109.961 38.872C109.534 40.3227 109.321 41.6453 109.321 42.84C109.321 43.6933 109.47 44.3973 109.769 44.952C110.11 45.5067 110.686 45.784 111.497 45.784C112.307 45.784 113.267 45.336 114.377 44.44C115.529 43.5013 116.617 42.4347 117.641 41.24C116.275 40.0027 115.294 38.6587 114.697 37.208C114.099 35.7147 113.801 33.9227 113.801 31.832C113.801 30.936 114.014 29.912 114.441 28.76C114.91 27.608 115.635 26.6053 116.617 25.752C117.641 24.8987 119.006 24.472 120.713 24.472C122.547 24.472 123.827 24.984 124.553 26.008C125.321 27.032 125.705 28.248 125.705 29.656C125.705 31.2347 125.278 33.0053 124.425 34.968C123.614 36.9307 122.633 38.7867 121.481 40.536C121.993 40.792 122.59 40.92 123.273 40.92C123.913 40.92 124.681 40.7707 125.577 40.472C126.473 40.1733 127.347 39.6827 128.201 39C129.054 38.2747 129.737 37.3147 130.249 36.12L131.401 36.952C130.462 39.128 129.203 40.728 127.625 41.752C126.089 42.7333 124.574 43.224 123.081 43.224C122.526 43.224 121.971 43.1813 121.417 43.096C120.862 42.968 120.35 42.8187 119.881 42.648C118.43 44.3547 116.766 45.848 114.889 47.128C113.011 48.408 111.113 49.048 109.193 49.048ZM119.305 39.192C120.329 37.6987 121.203 36.0987 121.929 34.392C122.654 32.6853 123.017 31.1067 123.017 29.656C123.017 27.7787 122.419 26.84 121.225 26.84C120.414 26.84 119.582 27.416 118.729 28.568C117.875 29.72 117.449 31.1707 117.449 32.92C117.449 33.816 117.598 34.904 117.897 36.184C118.238 37.464 118.707 38.4667 119.305 39.192ZM150.349 48.28C148.685 48.28 147.405 47.8533 146.509 47C145.656 46.1893 145.229 45.144 145.229 43.864C145.229 43.0107 145.379 42.1147 145.677 41.176C145.976 40.1947 146.275 39.2133 146.573 38.232C146.872 37.2507 147.021 36.312 147.021 35.416C147.021 34.4773 146.787 33.8373 146.317 33.496C145.891 33.112 145.379 32.92 144.781 32.92C143.501 32.92 142.179 33.4533 140.813 34.52C139.491 35.544 138.189 36.8453 136.909 38.424C135.672 40.0027 134.499 41.6453 133.389 43.352C132.28 45.0587 131.32 46.5947 130.509 47.96C129.699 47.96 128.931 47.8107 128.205 47.512C127.48 47.256 126.861 46.7867 126.349 46.104C126.392 45.8907 126.648 45.2507 127.117 44.184C127.544 43.0747 128.035 41.7733 128.589 40.28C129.144 38.744 129.635 37.144 130.061 35.48C130.488 33.816 130.701 32.3013 130.701 30.936C131 30.5947 131.448 30.2533 132.045 29.912C132.685 29.5707 133.347 29.4 134.029 29.4C135.523 29.4 136.269 30.04 136.269 31.32C136.269 32.472 135.907 34.3707 135.181 37.016C136.291 35.5227 137.507 34.1147 138.829 32.792C140.152 31.4693 141.517 30.4027 142.925 29.592C144.376 28.7387 145.827 28.312 147.277 28.312C149.112 28.312 150.456 28.9307 151.309 30.168C152.205 31.4053 152.653 32.7707 152.653 34.264C152.653 35.544 152.44 36.7387 152.013 37.848C151.587 38.9573 151.16 40.0027 150.733 40.984C150.349 41.9653 150.157 42.9253 150.157 43.864C150.157 44.5467 150.307 45.0373 150.605 45.336C150.947 45.592 151.309 45.72 151.693 45.72C152.717 45.72 153.784 45.2293 154.893 44.248C156.003 43.2667 157.048 42.0293 158.029 40.536C159.053 39 159.949 37.464 160.717 35.928L161.805 36.824C160.909 38.9147 159.885 40.8347 158.733 42.584C157.624 44.2907 156.365 45.6773 154.957 46.744C153.592 47.768 152.056 48.28 150.349 48.28ZM178.6 52.568C177.32 51.8853 176.51 51.1813 176.168 50.456C175.827 49.7307 175.656 49.112 175.656 48.6C175.656 47.448 176.062 45.912 176.872 43.992C177.726 42.0293 178.856 39.7893 180.264 37.272C181.672 34.7547 183.272 32.1307 185.064 29.4C183.742 29.3147 182.483 29.2507 181.288 29.208C180.094 29.1653 178.558 29.144 176.68 29.144H175.656C176.254 27.608 177.192 26.5413 178.472 25.944C179.795 25.304 181.331 24.984 183.08 24.984C183.806 24.984 184.552 25.0267 185.32 25.112C186.131 25.1973 186.963 25.2827 187.816 25.368C191.016 20.76 194.131 16.5573 197.16 12.76C200.19 8.92 202.792 5.95467 204.968 3.864C207.016 1.816 208.51 0.791996 209.448 0.791996C210.046 0.791996 210.707 1.02666 211.432 1.496C212.2 1.96533 212.99 2.56266 213.8 3.288C213.374 3.62933 212.819 4.504 212.136 5.912C211.496 7.32 210.792 9.112 210.024 11.288C209.299 13.4213 208.552 15.768 207.784 18.328C207.059 20.888 206.398 23.4907 205.8 26.136C205.203 28.7813 204.712 31.32 204.328 33.752C203.987 36.1413 203.816 38.2533 203.816 40.088C203.816 43.4587 204.563 45.144 206.056 45.144C207.038 45.144 208.254 44.3973 209.704 42.904C211.155 41.4107 212.776 38.9787 214.568 35.608L215.72 36.824C214.398 40.3227 212.67 43.2027 210.536 45.464C208.446 47.7253 206.206 48.856 203.816 48.856C201.768 48.856 200.318 47.9813 199.464 46.232C198.611 44.44 198.184 42.008 198.184 38.936C198.184 37.9547 198.248 36.8453 198.376 35.608C198.504 34.3707 198.718 32.8347 199.016 31C197.139 30.7013 195.475 30.4667 194.024 30.296C192.574 30.1253 191.187 29.9547 189.864 29.784C187.816 33.4107 185.832 37.1653 183.912 41.048C181.992 44.9307 180.222 48.7707 178.6 52.568ZM199.656 27.864C200.211 25.3467 200.851 22.808 201.576 20.248C202.344 17.6453 203.134 15.1707 203.944 12.824C204.798 10.4347 205.63 8.30133 206.44 6.424C204.478 7.96 202.216 10.4987 199.656 14.04C197.139 17.5387 194.558 21.5707 191.912 26.136C193.192 26.392 194.472 26.6693 195.752 26.968C197.032 27.2667 198.334 27.5653 199.656 27.864ZM218.797 48.92C216.792 48.92 215.299 48.2587 214.317 46.936C213.379 45.6133 212.909 43.9067 212.909 41.816C212.909 39.8107 213.293 37.4213 214.061 34.648C214.829 31.8747 215.832 28.952 217.069 25.88C218.349 22.808 219.736 19.8 221.229 16.856C222.765 13.912 224.301 11.2453 225.837 8.856C227.373 6.424 228.781 4.504 230.061 3.096C231.384 1.64533 232.451 0.919998 233.261 0.919998C233.816 0.919998 234.285 1.21866 234.669 1.816C235.053 2.37067 235.352 3.05333 235.565 3.864C235.821 4.67466 235.949 5.44267 235.949 6.168C235.949 7.27733 235.651 8.74933 235.053 10.584C234.499 12.376 233.688 14.36 232.621 16.536C231.597 18.712 230.36 20.952 228.909 23.256C227.501 25.5173 225.923 27.6933 224.173 29.784C222.467 31.832 220.632 33.624 218.669 35.16C218.499 36.2267 218.328 37.3573 218.157 38.552C218.029 39.704 217.965 40.7067 217.965 41.56C217.965 44.504 218.883 45.976 220.717 45.976C222.125 45.976 223.576 45.144 225.069 43.48C226.605 41.7733 227.949 39.7467 229.101 37.4C229.528 35.224 230.168 32.8773 231.021 30.36C231.875 27.8427 232.856 25.3253 233.965 22.808C235.117 20.248 236.333 17.816 237.613 15.512C238.893 13.1653 240.152 11.096 241.389 9.304C242.627 7.46933 243.757 6.04 244.781 5.016C245.848 3.94933 246.723 3.416 247.405 3.416C247.96 3.416 248.429 3.71466 248.813 4.312C249.24 4.86666 249.56 5.57066 249.773 6.424C250.029 7.23467 250.157 8.024 250.157 8.792C250.157 10.1147 249.795 11.864 249.069 14.04C248.344 16.1733 247.299 18.52 245.933 21.08C244.611 23.5973 242.989 26.0933 241.069 28.568C239.149 31.0427 236.973 33.24 234.541 35.16C234.328 36.1413 234.157 37.1867 234.029 38.296C233.901 39.4053 233.837 40.3867 233.837 41.24C233.837 44.3973 234.712 45.976 236.461 45.976C237.571 45.976 238.701 45.4853 239.853 44.504C241.005 43.48 242.093 42.1787 243.117 40.6C244.141 39.0213 245.016 37.4213 245.741 35.8L247.341 36.632C245.549 40.4293 243.587 43.4373 241.453 45.656C239.363 47.832 237.059 48.92 234.541 48.92C232.579 48.92 231.128 48.28 230.189 47C229.251 45.72 228.76 44.056 228.717 42.008C227.267 44.184 225.709 45.8693 224.045 47.064C222.424 48.3013 220.675 48.92 218.797 48.92ZM219.821 31.576C221.571 29.6987 223.235 27.608 224.813 25.304C226.392 22.9573 227.8 20.632 229.037 18.328C230.275 15.9813 231.256 13.8693 231.981 11.992C232.707 10.072 233.069 8.6 233.069 7.576C233.069 7.14933 233.027 6.89333 232.941 6.808C232.643 6.808 232.109 7.29867 231.341 8.28C230.573 9.21867 229.677 10.52 228.653 12.184C227.672 13.848 226.627 15.7467 225.517 17.88C224.451 19.9707 223.405 22.2107 222.381 24.6C221.4 26.9467 220.547 29.272 219.821 31.576ZM235.565 31.64C237.272 29.848 238.829 27.928 240.237 25.88C241.688 23.7893 242.925 21.7413 243.949 19.736C245.016 17.688 245.827 15.832 246.381 14.168C246.979 12.4613 247.277 11.1173 247.277 10.136C247.277 9.752 247.256 9.496 247.213 9.368C246.787 9.368 246.104 9.98667 245.165 11.224C244.269 12.4613 243.245 14.1467 242.093 16.28C240.941 18.3707 239.789 20.7387 238.637 23.384C237.485 26.0293 236.461 28.7813 235.565 31.64ZM251.58 49.816C248.85 49.816 246.738 49.0693 245.244 47.576C243.794 46.1253 243.068 44.2907 243.068 42.072C243.068 40.1947 243.538 38.2107 244.476 36.12C245.458 33.9867 246.759 32.0027 248.38 30.168C250.002 28.2907 251.794 26.776 253.756 25.624C255.719 24.472 257.682 23.896 259.644 23.896C260.754 23.896 261.799 24.1947 262.78 24.792C263.804 25.3467 264.316 26.4773 264.316 28.184C264.316 29.8053 263.847 31.32 262.908 32.728C261.97 34.136 260.711 35.3947 259.132 36.504C257.554 37.6133 255.804 38.5307 253.884 39.256C252.007 39.9387 250.108 40.3867 248.188 40.6C248.146 40.7707 248.103 40.9627 248.06 41.176C248.06 41.3467 248.06 41.6453 248.06 42.072C248.06 42.2853 248.082 42.6693 248.124 43.224C248.21 43.736 248.402 44.2907 248.7 44.888C248.999 45.4853 249.49 45.9973 250.172 46.424C250.855 46.8507 251.794 47.064 252.988 47.064C254.78 47.064 256.572 46.5733 258.364 45.592C260.199 44.568 261.906 43.224 263.484 41.56C265.106 39.896 266.45 38.04 267.516 35.992L268.796 37.016C267.644 39.576 266.151 41.816 264.316 43.736C262.524 45.656 260.519 47.1493 258.3 48.216C256.124 49.2827 253.884 49.816 251.58 49.816ZM248.892 38.232C250.002 38.104 251.239 37.72 252.604 37.08C253.97 36.44 255.271 35.6293 256.508 34.648C257.788 33.6667 258.834 32.6 259.644 31.448C260.455 30.2533 260.86 29.0587 260.86 27.864C260.86 27.3947 260.775 27.0747 260.604 26.904C260.434 26.7333 260.156 26.648 259.772 26.648C258.791 26.648 257.767 27.0107 256.7 27.736C255.634 28.4187 254.588 29.336 253.564 30.488C252.54 31.5973 251.623 32.8347 250.812 34.2C250.002 35.5653 249.362 36.9093 248.892 38.232ZM269.041 64.92C267.974 64.92 266.971 64.5787 266.033 63.896C265.137 63.256 264.689 62.2107 264.689 60.76C264.689 59.3947 265.094 58.1573 265.905 57.048C266.715 55.9813 267.761 54.9787 269.041 54.04C270.321 53.144 271.686 52.312 273.137 51.544C274.63 50.8187 276.059 50.136 277.425 49.496C277.894 48.2587 278.406 46.7013 278.961 44.824C279.558 42.904 280.07 41.1333 280.497 39.512C279.174 41.3467 277.766 42.968 276.273 44.376C274.779 45.784 273.115 46.488 271.281 46.488C270.513 46.488 269.702 46.3387 268.849 46.04C267.995 45.6987 267.27 45.144 266.673 44.376C266.118 43.5653 265.841 42.4987 265.841 41.176C265.841 40.0667 266.033 38.7227 266.417 37.144C266.843 35.5653 267.355 34.0293 267.953 32.536C268.593 31 269.254 29.7413 269.937 28.76C270.619 27.736 271.217 27.224 271.729 27.224C271.985 27.224 272.347 27.3307 272.817 27.544C273.329 27.7147 273.819 27.9707 274.289 28.312C274.758 28.6107 275.057 28.952 275.185 29.336C274.801 29.848 274.374 30.5947 273.905 31.576C273.435 32.5147 272.987 33.5813 272.561 34.776C272.134 35.928 271.771 37.0587 271.473 38.168C271.217 39.2773 271.089 40.2373 271.089 41.048C271.089 41.688 271.217 42.2427 271.473 42.712C271.729 43.1813 272.219 43.416 272.945 43.416C273.883 43.416 274.843 43.032 275.825 42.264C276.849 41.496 277.83 40.5147 278.769 39.32C279.75 38.1253 280.625 36.9093 281.393 35.672C281.478 35.3733 281.563 34.904 281.649 34.264C281.734 33.624 281.883 32.9627 282.097 32.28C282.31 31.5547 282.673 30.8933 283.185 30.296C283.739 29.6987 284.507 29.4 285.489 29.4C285.83 29.4 286.15 29.4213 286.449 29.464C286.747 29.5067 287.11 29.5707 287.537 29.656C287.537 30.296 287.302 31.5547 286.833 33.432C286.406 35.2667 285.83 37.4 285.105 39.832C284.379 42.264 283.569 44.696 282.673 47.128C284.465 46.4027 286.321 45.208 288.241 43.544C290.203 41.8373 291.782 39.4267 292.977 36.312L294.065 37.208C293.425 39.3413 292.443 41.1973 291.121 42.776C289.841 44.3547 288.39 45.6987 286.769 46.808C285.147 47.9173 283.505 48.8347 281.841 49.56C280.689 52.3333 279.43 54.8933 278.065 57.24C276.742 59.5867 275.334 61.4427 273.841 62.808C272.347 64.216 270.747 64.92 269.041 64.92ZM268.401 62.552C269.211 62.552 270.342 61.6987 271.793 59.992C273.243 58.2853 274.715 55.7253 276.209 52.312C274.843 52.9947 273.457 53.784 272.049 54.68C270.683 55.6187 269.531 56.6 268.593 57.624C267.654 58.648 267.185 59.6933 267.185 60.76C267.185 61.1867 267.27 61.592 267.441 61.976C267.654 62.36 267.974 62.552 268.401 62.552Z" fill="#45B7D0"/>
</svg>
