<svg width="235.2" height="52" viewBox="0 0 294 65" fill="none" xmlns="http://www.w3.org/2000/svg">
<path d="M14.912 52.568C12.4373 52.568 10.0693 52.1413 7.808 51.288C5.58933 50.4347 3.776 49.1333 2.368 47.384C0.96 45.6347 0.256 43.4587 0.256 40.856C0.256 38.552 0.768 36.76 1.792 35.48C2.816 34.1573 4.096 33.24 5.632 32.728C7.168 32.216 8.66133 31.96 10.112 31.96C8.74667 33.4107 7.70133 34.904 6.976 36.44C6.29333 37.976 5.952 39.448 5.952 40.856C5.952 42.3067 6.31467 43.672 7.04 44.952C7.808 46.1893 8.93867 47.192 10.432 47.96C11.9253 48.7707 13.7813 49.176 16 49.176C17.92 49.176 19.776 48.856 21.568 48.216C23.4027 47.576 24.896 46.616 26.048 45.336C27.2427 44.056 27.84 42.456 27.84 40.536C27.84 38.7867 27.328 37.2933 26.304 36.056C25.3227 34.776 24.0427 33.6453 22.464 32.664C20.8853 31.64 19.2213 30.68 17.472 29.784C15.7227 28.8453 14.0587 27.8427 12.48 26.776C10.9013 25.7093 9.6 24.472 8.576 23.064C7.59467 21.656 7.104 19.9707 7.104 18.008C7.104 16.2587 7.53067 14.4027 8.384 12.44C9.28 10.4347 10.5387 8.55733 12.16 6.808C13.7813 5.05866 15.744 3.65067 18.048 2.584C20.352 1.47467 22.912 0.919998 25.728 0.919998C28.672 0.919998 30.7413 1.53866 31.936 2.776C33.1307 4.01333 33.728 5.63466 33.728 7.64C33.728 9.21867 33.4507 10.904 32.896 12.696C32.3413 14.488 31.6587 16.1947 30.848 17.816C30.08 19.4373 29.3333 20.824 28.608 21.976C26.7307 21.592 25.792 20.504 25.792 18.712C25.792 17.816 25.9627 16.8133 26.304 15.704C26.688 14.5947 27.1147 13.4427 27.584 12.248C28.096 11.0533 28.5227 9.90133 28.864 8.792C29.248 7.64 29.44 6.63733 29.44 5.784C29.44 5.016 29.2053 4.41866 28.736 3.992C28.3093 3.56533 27.4133 3.352 26.048 3.352C24 3.352 22.1227 3.8 20.416 4.696C18.7093 5.592 17.216 6.72266 15.936 8.088C14.6987 9.45333 13.7387 10.904 13.056 12.44C12.3733 13.9333 12.032 15.2987 12.032 16.536C12.032 18.072 12.5227 19.3947 13.504 20.504C14.4853 21.5707 15.744 22.552 17.28 23.448C18.8587 24.344 20.5013 25.24 22.208 26.136C23.9573 27.032 25.6 28.0347 27.136 29.144C28.7147 30.2533 29.9947 31.576 30.976 33.112C31.9573 34.648 32.448 36.5253 32.448 38.744C32.448 40.9627 31.936 42.9253 30.912 44.632C29.9307 46.3387 28.5867 47.768 26.88 48.92C25.1733 50.1147 23.2747 51.0107 21.184 51.608C19.136 52.248 17.0453 52.568 14.912 52.568ZM48.9845 20.056C48.1738 20.056 47.4272 19.864 46.7445 19.48C46.1045 19.0533 45.7845 18.4133 45.7845 17.56C45.7845 16.536 46.3392 15.6613 47.4485 14.936C48.5578 14.2107 49.7098 13.848 50.9045 13.848C51.6725 13.848 52.3125 14.0187 52.8245 14.36C53.3792 14.7013 53.6565 15.32 53.6565 16.216C53.6565 17.112 53.1658 17.9867 52.1845 18.84C51.2032 19.6507 50.1365 20.056 48.9845 20.056ZM41.4325 48.92C39.5552 48.92 38.1472 48.3653 37.2085 47.256C36.2698 46.1467 35.8005 44.8027 35.8005 43.224C35.8005 42.2427 35.9712 41.0053 36.3125 39.512C36.6538 38.0187 37.1232 36.4613 37.7205 34.84C38.3605 33.176 39.0858 31.6187 39.8965 30.168C40.7072 28.7173 41.5818 27.544 42.5205 26.648C43.4592 25.7093 44.3978 25.24 45.3365 25.24C45.8485 25.24 46.2965 25.4107 46.6805 25.752C47.0645 26.0507 47.2565 26.4987 47.2565 27.096C47.2565 27.6507 46.9152 28.4827 46.2325 29.592C45.5925 30.7013 44.8245 31.9813 43.9285 33.432C43.0752 34.8827 42.3072 36.3973 41.6245 37.976C40.9845 39.512 40.6645 40.984 40.6645 42.392C40.6645 43.7573 40.8992 44.6747 41.3685 45.144C41.8805 45.5707 42.6058 45.784 43.5445 45.784C44.9952 45.784 46.5738 45.0587 48.2805 43.608C49.9872 42.1573 51.7578 39.6187 53.5925 35.992L54.5525 37.016C53.0592 40.7707 51.1605 43.6933 48.8565 45.784C46.5525 47.8747 44.0778 48.92 41.4325 48.92ZM57.4415 48.92C55.4362 48.92 54.0282 48.2587 53.2175 46.936C52.4495 45.5707 52.0655 43.9707 52.0655 42.136C52.0655 40.0453 52.4495 37.592 53.2175 34.776C53.9855 31.96 54.9882 29.016 56.2255 25.944C57.5055 22.8293 58.8922 19.8 60.3855 16.856C61.9215 13.8693 63.4575 11.1813 64.9935 8.792C66.5295 6.40266 67.9375 4.504 69.2175 3.096C70.5402 1.64533 71.6068 0.919998 72.4175 0.919998C72.9722 0.919998 73.4415 1.21866 73.8255 1.816C74.2095 2.37067 74.5082 3.05333 74.7215 3.864C74.9775 4.632 75.1055 5.35733 75.1055 6.04C75.1055 7.192 74.8068 8.70667 74.2095 10.584C73.6548 12.4187 72.8442 14.4453 71.7775 16.664C70.7535 18.8827 69.5162 21.1653 68.0655 23.512C66.6575 25.816 65.0788 28.0133 63.3295 30.104C61.6228 32.1947 59.7882 34.008 57.8255 35.544C57.6548 36.6107 57.4842 37.6773 57.3135 38.744C57.1855 39.768 57.1215 40.7067 57.1215 41.56C57.1215 43.096 57.3775 44.2267 57.8895 44.952C58.4015 45.6347 59.0628 45.976 59.8735 45.976C60.9402 45.976 62.0282 45.4853 63.1375 44.504C64.2895 43.48 65.3775 42.2 66.4015 40.664C67.4682 39.0853 68.3855 37.464 69.1535 35.8L70.6895 36.632C68.8548 40.4293 66.8068 43.4373 64.5455 45.656C62.2842 47.832 59.9162 48.92 57.4415 48.92ZM58.9775 31.576C60.7695 29.6133 62.4548 27.4373 64.0335 25.048C65.6122 22.6587 66.9988 20.2907 68.1935 17.944C69.4308 15.5547 70.3908 13.4 71.0735 11.48C71.7562 9.51733 72.1188 8.00267 72.1615 6.936V6.744C71.8202 6.744 71.2655 7.23467 70.4975 8.216C69.7722 9.15466 68.8975 10.456 67.8735 12.12C66.8495 13.784 65.7828 15.6827 64.6735 17.816C63.6068 19.9493 62.5615 22.2107 61.5375 24.6C60.5562 26.9467 59.7028 29.272 58.9775 31.576ZM80.297 20.056C79.4863 20.056 78.7397 19.864 78.057 19.48C77.417 19.0533 77.097 18.4133 77.097 17.56C77.097 16.536 77.6517 15.6613 78.761 14.936C79.8703 14.2107 81.0223 13.848 82.217 13.848C82.985 13.848 83.625 14.0187 84.137 14.36C84.6917 14.7013 84.969 15.32 84.969 16.216C84.969 17.112 84.4783 17.9867 83.497 18.84C82.5157 19.6507 81.449 20.056 80.297 20.056ZM72.745 48.92C70.8677 48.92 69.4597 48.3653 68.521 47.256C67.5823 46.1467 67.113 44.8027 67.113 43.224C67.113 42.2427 67.2837 41.0053 67.625 39.512C67.9663 38.0187 68.4357 36.4613 69.033 34.84C69.673 33.176 70.3983 31.6187 71.209 30.168C72.0197 28.7173 72.8943 27.544 73.833 26.648C74.7717 25.7093 75.7103 25.24 76.649 25.24C77.161 25.24 77.609 25.4107 77.993 25.752C78.377 26.0507 78.569 26.4987 78.569 27.096C78.569 27.6507 78.2277 28.4827 77.545 29.592C76.905 30.7013 76.137 31.9813 75.241 33.432C74.3877 34.8827 73.6197 36.3973 72.937 37.976C72.297 39.512 71.977 40.984 71.977 42.392C71.977 43.7573 72.2117 44.6747 72.681 45.144C73.193 45.5707 73.9183 45.784 74.857 45.784C76.3077 45.784 77.8863 45.0587 79.593 43.608C81.2997 42.1573 83.0703 39.6187 84.905 35.992L85.865 37.016C84.3717 40.7707 82.473 43.6933 80.169 45.784C77.865 47.8747 75.3903 48.92 72.745 48.92ZM90.482 50.584C88.2633 50.584 86.4287 49.88 84.978 48.472C83.57 47.1067 82.866 44.9947 82.866 42.136C82.866 40.0453 83.2713 37.9973 84.082 35.992C84.8927 33.9867 85.9807 32.1947 87.346 30.616C88.7113 28.9947 90.226 27.7147 91.89 26.776C93.5967 25.8373 95.3247 25.368 97.074 25.368C98.866 25.368 100.146 25.816 100.914 26.712C101.725 27.608 102.13 28.6533 102.13 29.848C102.13 31.0427 101.831 32.216 101.234 33.368C100.679 34.4773 99.9113 35.032 98.93 35.032C98.1193 35.032 97.458 34.6267 96.946 33.816C97.3727 33.5173 97.8207 32.9627 98.29 32.152C98.7593 31.3413 98.994 30.296 98.994 29.016C98.994 28.2907 98.5887 27.928 97.778 27.928C96.7113 27.928 95.5807 28.4187 94.386 29.4C93.234 30.3387 92.146 31.576 91.122 33.112C90.1407 34.6053 89.33 36.2053 88.69 37.912C88.0927 39.576 87.794 41.112 87.794 42.52C87.794 43.7147 88.0927 44.824 88.69 45.848C89.33 46.8293 90.546 47.32 92.338 47.32C93.9593 47.32 95.6447 46.8507 97.394 45.912C99.1433 44.9733 100.786 43.672 102.322 42.008C103.858 40.3013 105.095 38.2747 106.034 35.928L107.314 37.08C106.29 39.6827 104.861 42.008 103.026 44.056C101.234 46.0613 99.2287 47.64 97.01 48.792C94.834 49.9867 92.658 50.584 90.482 50.584ZM108.786 49.048C106.867 49.048 105.544 48.408 104.819 47.128C104.136 45.8907 103.794 44.5253 103.794 43.032C103.794 41.6667 104.008 40.28 104.434 38.872C104.861 37.4213 105.437 36.0773 106.163 34.84C106.931 33.6027 107.763 32.6213 108.659 31.896C109.597 31.128 110.536 30.744 111.475 30.744C111.773 30.744 112.115 30.808 112.499 30.936C112.925 31.0213 113.224 31.1707 113.395 31.384C112.712 32.2373 112.008 33.3467 111.283 34.712C110.6 36.0347 110.024 37.4213 109.555 38.872C109.128 40.3227 108.915 41.6453 108.915 42.84C108.915 43.6933 109.064 44.3973 109.363 44.952C109.704 45.5067 110.28 45.784 111.091 45.784C111.901 45.784 112.861 45.336 113.97 44.44C115.123 43.5013 116.211 42.4347 117.235 41.24C115.869 40.0027 114.888 38.6587 114.291 37.208C113.693 35.7147 113.395 33.9227 113.395 31.832C113.395 30.936 113.608 29.912 114.035 28.76C114.504 27.608 115.229 26.6053 116.211 25.752C117.235 24.8987 118.6 24.472 120.307 24.472C122.141 24.472 123.421 24.984 124.147 26.008C124.915 27.032 125.299 28.248 125.299 29.656C125.299 31.2347 124.872 33.0053 124.019 34.968C123.208 36.9307 122.227 38.7867 121.075 40.536C121.587 40.792 122.184 40.92 122.867 40.92C123.507 40.92 124.275 40.7707 125.171 40.472C126.067 40.1733 126.941 39.6827 127.795 39C128.648 38.2747 129.331 37.3147 129.843 36.12L130.995 36.952C130.056 39.128 128.797 40.728 127.219 41.752C125.683 42.7333 124.168 43.224 122.675 43.224C122.12 43.224 121.565 43.1813 121.01 43.096C120.456 42.968 119.944 42.8187 119.475 42.648C118.024 44.3547 116.36 45.848 114.483 47.128C112.605 48.408 110.707 49.048 108.786 49.048ZM118.899 39.192C119.923 37.6987 120.797 36.0987 121.523 34.392C122.248 32.6853 122.611 31.1067 122.611 29.656C122.611 27.7787 122.013 26.84 120.819 26.84C120.008 26.84 119.176 27.416 118.323 28.568C117.469 29.72 117.043 31.1707 117.043 32.92C117.043 33.816 117.192 34.904 117.491 36.184C117.832 37.464 118.301 38.4667 118.899 39.192ZM149.943 48.28C148.279 48.28 146.999 47.8533 146.103 47C145.25 46.1893 144.823 45.144 144.823 43.864C144.823 43.0107 144.972 42.1147 145.271 41.176C145.57 40.1947 145.868 39.2133 146.167 38.232C146.466 37.2507 146.615 36.312 146.615 35.416C146.615 34.4773 146.38 33.8373 145.911 33.496C145.484 33.112 144.972 32.92 144.375 32.92C143.095 32.92 141.772 33.4533 140.407 34.52C139.084 35.544 137.783 36.8453 136.503 38.424C135.266 40.0027 134.092 41.6453 132.983 43.352C131.874 45.0587 130.914 46.5947 130.103 47.96C129.292 47.96 128.524 47.8107 127.799 47.512C127.074 47.256 126.455 46.7867 125.943 46.104C125.986 45.8907 126.242 45.2507 126.711 44.184C127.138 43.0747 127.628 41.7733 128.183 40.28C128.738 38.744 129.228 37.144 129.655 35.48C130.082 33.816 130.295 32.3013 130.295 30.936C130.594 30.5947 131.042 30.2533 131.639 29.912C132.279 29.5707 132.94 29.4 133.623 29.4C135.116 29.4 135.863 30.04 135.863 31.32C135.863 32.472 135.5 34.3707 134.775 37.016C135.884 35.5227 137.1 34.1147 138.423 32.792C139.746 31.4693 141.111 30.4027 142.519 29.592C143.97 28.7387 145.42 28.312 146.871 28.312C148.706 28.312 150.05 28.9307 150.903 30.168C151.799 31.4053 152.247 32.7707 152.247 34.264C152.247 35.544 152.034 36.7387 151.607 37.848C151.18 38.9573 150.754 40.0027 150.327 40.984C149.943 41.9653 149.751 42.9253 149.751 43.864C149.751 44.5467 149.9 45.0373 150.199 45.336C150.54 45.592 150.903 45.72 151.287 45.72C152.311 45.72 153.378 45.2293 154.487 44.248C155.596 43.2667 156.642 42.0293 157.623 40.536C158.647 39 159.543 37.464 160.311 35.928L161.399 36.824C160.503 38.9147 159.479 40.8347 158.327 42.584C157.218 44.2907 155.959 45.6773 154.551 46.744C153.186 47.768 151.65 48.28 149.943 48.28ZM178.194 52.568C176.914 51.8853 176.103 51.1813 175.762 50.456C175.421 49.7307 175.25 49.112 175.25 48.6C175.25 47.448 175.655 45.912 176.466 43.992C177.319 42.0293 178.45 39.7893 179.858 37.272C181.266 34.7547 182.866 32.1307 184.658 29.4C183.335 29.3147 182.077 29.2507 180.882 29.208C179.687 29.1653 178.151 29.144 176.274 29.144H175.25C175.847 27.608 176.786 26.5413 178.066 25.944C179.389 25.304 180.925 24.984 182.674 24.984C183.399 24.984 184.146 25.0267 184.914 25.112C185.725 25.1973 186.557 25.2827 187.41 25.368C190.61 20.76 193.725 16.5573 196.754 12.76C199.783 8.92 202.386 5.95467 204.562 3.864C206.61 1.816 208.103 0.791996 209.042 0.791996C209.639 0.791996 210.301 1.02666 211.026 1.496C211.794 1.96533 212.583 2.56266 213.394 3.288C212.967 3.62933 212.413 4.504 211.73 5.912C211.09 7.32 210.386 9.112 209.618 11.288C208.893 13.4213 208.146 15.768 207.378 18.328C206.653 20.888 205.991 23.4907 205.394 26.136C204.797 28.7813 204.306 31.32 203.922 33.752C203.581 36.1413 203.41 38.2533 203.41 40.088C203.41 43.4587 204.157 45.144 205.65 45.144C206.631 45.144 207.847 44.3973 209.298 42.904C210.749 41.4107 212.37 38.9787 214.162 35.608L215.314 36.824C213.991 40.3227 212.263 43.2027 210.13 45.464C208.039 47.7253 205.799 48.856 203.41 48.856C201.362 48.856 199.911 47.9813 199.058 46.232C198.205 44.44 197.778 42.008 197.778 38.936C197.778 37.9547 197.842 36.8453 197.97 35.608C198.098 34.3707 198.311 32.8347 198.61 31C196.733 30.7013 195.069 30.4667 193.618 30.296C192.167 30.1253 190.781 29.9547 189.458 29.784C187.41 33.4107 185.426 37.1653 183.506 41.048C181.586 44.9307 179.815 48.7707 178.194 52.568ZM199.25 27.864C199.805 25.3467 200.445 22.808 201.17 20.248C201.938 17.6453 202.727 15.1707 203.538 12.824C204.391 10.4347 205.223 8.30133 206.034 6.424C204.071 7.96 201.81 10.4987 199.25 14.04C196.733 17.5387 194.151 21.5707 191.506 26.136C192.786 26.392 194.066 26.6693 195.346 26.968C196.626 27.2667 197.927 27.5653 199.25 27.864ZM218.391 48.92C216.386 48.92 214.892 48.2587 213.911 46.936C212.972 45.6133 212.503 43.9067 212.503 41.816C212.503 39.8107 212.887 37.4213 213.655 34.648C214.423 31.8747 215.426 28.952 216.663 25.88C217.943 22.808 219.33 19.8 220.823 16.856C222.359 13.912 223.895 11.2453 225.431 8.856C226.967 6.424 228.375 4.504 229.655 3.096C230.978 1.64533 232.044 0.919998 232.855 0.919998C233.41 0.919998 233.879 1.21866 234.263 1.816C234.647 2.37067 234.946 3.05333 235.159 3.864C235.415 4.67466 235.543 5.44267 235.543 6.168C235.543 7.27733 235.244 8.74933 234.647 10.584C234.092 12.376 233.282 14.36 232.215 16.536C231.191 18.712 229.954 20.952 228.503 23.256C227.095 25.5173 225.516 27.6933 223.767 29.784C222.06 31.832 220.226 33.624 218.263 35.16C218.092 36.2267 217.922 37.3573 217.751 38.552C217.623 39.704 217.559 40.7067 217.559 41.56C217.559 44.504 218.476 45.976 220.311 45.976C221.719 45.976 223.17 45.144 224.663 43.48C226.199 41.7733 227.543 39.7467 228.695 37.4C229.122 35.224 229.762 32.8773 230.615 30.36C231.468 27.8427 232.45 25.3253 233.559 22.808C234.711 20.248 235.927 17.816 237.207 15.512C238.487 13.1653 239.746 11.096 240.983 9.304C242.22 7.46933 243.351 6.04 244.375 5.016C245.442 3.94933 246.316 3.416 246.999 3.416C247.554 3.416 248.023 3.71466 248.407 4.312C248.834 4.86666 249.154 5.57066 249.367 6.424C249.623 7.23467 249.751 8.024 249.751 8.792C249.751 10.1147 249.388 11.864 248.663 14.04C247.938 16.1733 246.892 18.52 245.527 21.08C244.204 23.5973 242.583 26.0933 240.663 28.568C238.743 31.0427 236.567 33.24 234.135 35.16C233.922 36.1413 233.751 37.1867 233.623 38.296C233.495 39.4053 233.431 40.3867 233.431 41.24C233.431 44.3973 234.306 45.976 236.055 45.976C237.164 45.976 238.295 45.4853 239.447 44.504C240.599 43.48 241.687 42.1787 242.711 40.6C243.735 39.0213 244.61 37.4213 245.335 35.8L246.935 36.632C245.143 40.4293 243.18 43.4373 241.047 45.656C238.956 47.832 236.652 48.92 234.135 48.92C232.172 48.92 230.722 48.28 229.783 47C228.844 45.72 228.354 44.056 228.311 42.008C226.86 44.184 225.303 45.8693 223.639 47.064C222.018 48.3013 220.268 48.92 218.391 48.92ZM219.415 31.576C221.164 29.6987 222.828 27.608 224.407 25.304C225.986 22.9573 227.394 20.632 228.631 18.328C229.868 15.9813 230.85 13.8693 231.575 11.992C232.3 10.072 232.663 8.6 232.663 7.576C232.663 7.14933 232.62 6.89333 232.535 6.808C232.236 6.808 231.703 7.29867 230.935 8.28C230.167 9.21867 229.271 10.52 228.247 12.184C227.266 13.848 226.22 15.7467 225.111 17.88C224.044 19.9707 222.999 22.2107 221.975 24.6C220.994 26.9467 220.14 29.272 219.415 31.576ZM235.159 31.64C236.866 29.848 238.423 27.928 239.831 25.88C241.282 23.7893 242.519 21.7413 243.543 19.736C244.61 17.688 245.42 15.832 245.975 14.168C246.572 12.4613 246.871 11.1173 246.871 10.136C246.871 9.752 246.85 9.496 246.807 9.368C246.38 9.368 245.698 9.98667 244.759 11.224C243.863 12.4613 242.839 14.1467 241.687 16.28C240.535 18.3707 239.383 20.7387 238.231 23.384C237.079 26.0293 236.055 28.7813 235.159 31.64ZM251.174 49.816C248.443 49.816 246.331 49.0693 244.838 47.576C243.387 46.1253 242.662 44.2907 242.662 42.072C242.662 40.1947 243.131 38.2107 244.07 36.12C245.051 33.9867 246.353 32.0027 247.974 30.168C249.595 28.2907 251.387 26.776 253.35 25.624C255.313 24.472 257.275 23.896 259.238 23.896C260.347 23.896 261.393 24.1947 262.374 24.792C263.398 25.3467 263.91 26.4773 263.91 28.184C263.91 29.8053 263.441 31.32 262.502 32.728C261.563 34.136 260.305 35.3947 258.726 36.504C257.147 37.6133 255.398 38.5307 253.478 39.256C251.601 39.9387 249.702 40.3867 247.782 40.6C247.739 40.7707 247.697 40.9627 247.654 41.176C247.654 41.3467 247.654 41.6453 247.654 42.072C247.654 42.2853 247.675 42.6693 247.718 43.224C247.803 43.736 247.995 44.2907 248.294 44.888C248.593 45.4853 249.083 45.9973 249.766 46.424C250.449 46.8507 251.387 47.064 252.582 47.064C254.374 47.064 256.166 46.5733 257.958 45.592C259.793 44.568 261.499 43.224 263.078 41.56C264.699 39.896 266.043 38.04 267.11 35.992L268.39 37.016C267.238 39.576 265.745 41.816 263.91 43.736C262.118 45.656 260.113 47.1493 257.894 48.216C255.718 49.2827 253.478 49.816 251.174 49.816ZM248.486 38.232C249.595 38.104 250.833 37.72 252.198 37.08C253.563 36.44 254.865 35.6293 256.102 34.648C257.382 33.6667 258.427 32.6 259.238 31.448C260.049 30.2533 260.454 29.0587 260.454 27.864C260.454 27.3947 260.369 27.0747 260.198 26.904C260.027 26.7333 259.75 26.648 259.366 26.648C258.385 26.648 257.361 27.0107 256.294 27.736C255.227 28.4187 254.182 29.336 253.158 30.488C252.134 31.5973 251.217 32.8347 250.406 34.2C249.595 35.5653 248.955 36.9093 248.486 38.232ZM268.635 64.92C267.568 64.92 266.565 64.5787 265.627 63.896C264.73 63.256 264.282 62.2107 264.282 60.76C264.282 59.3947 264.688 58.1573 265.498 57.048C266.309 55.9813 267.355 54.9787 268.635 54.04C269.915 53.144 271.28 52.312 272.731 51.544C274.224 50.8187 275.653 50.136 277.019 49.496C277.488 48.2587 278 46.7013 278.555 44.824C279.152 42.904 279.664 41.1333 280.091 39.512C278.768 41.3467 277.36 42.968 275.867 44.376C274.373 45.784 272.709 46.488 270.875 46.488C270.107 46.488 269.296 46.3387 268.443 46.04C267.589 45.6987 266.864 45.144 266.267 44.376C265.712 43.5653 265.434 42.4987 265.434 41.176C265.434 40.0667 265.627 38.7227 266.011 37.144C266.437 35.5653 266.949 34.0293 267.547 32.536C268.187 31 268.848 29.7413 269.531 28.76C270.213 27.736 270.811 27.224 271.323 27.224C271.579 27.224 271.941 27.3307 272.411 27.544C272.923 27.7147 273.413 27.9707 273.883 28.312C274.352 28.6107 274.651 28.952 274.779 29.336C274.395 29.848 273.968 30.5947 273.499 31.576C273.029 32.5147 272.581 33.5813 272.155 34.776C271.728 35.928 271.365 37.0587 271.067 38.168C270.811 39.2773 270.683 40.2373 270.683 41.048C270.683 41.688 270.811 42.2427 271.067 42.712C271.323 43.1813 271.813 43.416 272.539 43.416C273.477 43.416 274.437 43.032 275.419 42.264C276.443 41.496 277.424 40.5147 278.363 39.32C279.344 38.1253 280.219 36.9093 280.987 35.672C281.072 35.3733 281.157 34.904 281.243 34.264C281.328 33.624 281.477 32.9627 281.691 32.28C281.904 31.5547 282.267 30.8933 282.779 30.296C283.333 29.6987 284.101 29.4 285.083 29.4C285.424 29.4 285.744 29.4213 286.043 29.464C286.341 29.5067 286.704 29.5707 287.131 29.656C287.131 30.296 286.896 31.5547 286.427 33.432C286 35.2667 285.424 37.4 284.699 39.832C283.973 42.264 283.163 44.696 282.267 47.128C284.059 46.4027 285.915 45.208 287.835 43.544C289.797 41.8373 291.376 39.4267 292.571 36.312L293.659 37.208C293.019 39.3413 292.037 41.1973 290.715 42.776C289.435 44.3547 287.984 45.6987 286.363 46.808C284.741 47.9173 283.099 48.8347 281.435 49.56C280.283 52.3333 279.024 54.8933 277.659 57.24C276.336 59.5867 274.928 61.4427 273.435 62.808C271.941 64.216 270.341 64.92 268.635 64.92ZM267.995 62.552C268.805 62.552 269.936 61.6987 271.387 59.992C272.837 58.2853 274.309 55.7253 275.803 52.312C274.437 52.9947 273.051 53.784 271.643 54.68C270.277 55.6187 269.125 56.6 268.187 57.624C267.248 58.648 266.779 59.6933 266.779 60.76C266.779 61.1867 266.864 61.592 267.035 61.976C267.248 62.36 267.568 62.552 267.995 62.552Z" fill="black"/>
</svg>
