<svg width="206.1" height="45" viewBox="0 0 229 50" fill="none" xmlns="http://www.w3.org/2000/svg">
<path d="M7.9 49.22C5.46 49.22 3.62 48.82 2.38 48.02C1.14 47.22 0.5 45.9 0.46 44.06C0.46 43.66 0.68 43.46 1.12 43.46C1.48 43.46 2.02 43.56 2.74 43.76C3.5 43.92 4.92 44 7 44C10.52 44 13.76 43.64 16.72 42.92C19.68 42.16 22.24 41.16 24.4 39.92C26.6 38.64 28.3 37.22 29.5 35.66C30.7 34.06 31.3 32.4 31.3 30.68C31.3 29.12 30.82 27.88 29.86 26.96C28.94 26 27.7 25.28 26.14 24.8C24.62 24.28 22.94 23.94 21.1 23.78C19.3 23.62 17.52 23.54 15.76 23.54C15 23.54 14.24 23.56 13.48 23.6C12.72 23.6 12 23.6 11.32 23.6C10.44 26.64 9.58 29.78 8.74 33.02C7.9 36.26 7.02 39.44 6.1 42.56C4.9 42.56 3.86 42.24 2.98 41.6C2.1 40.96 1.66 40.18 1.66 39.26C1.66 38.9 1.72 38.44 1.84 37.88C2 37.28 2.22 36.58 2.5 35.78C2.74 35.02 3.14 33.76 3.7 32C4.3 30.24 5 28.16 5.8 25.76C6.6 23.36 7.48 20.84 8.44 18.2C9.44 15.52 10.46 12.9 11.5 10.34C12.58 7.78 13.64 5.48 14.68 3.44C13.08 3.8 11.76 4.22 10.72 4.7C9.68 5.18 8.86 5.6 8.26 5.96C7.66 6.32 7.2 6.5 6.88 6.5C6.64 6.5 6.32 6.36 5.92 6.08C5.56 5.8 5.22 5.48 4.9 5.12C4.62 4.76 4.48 4.44 4.48 4.16C6.64 3.28 8.88 2.5 11.2 1.82C13.52 1.14 16.32 0.799998 19.6 0.799998C21.04 0.799998 22.62 0.919998 24.34 1.16C26.06 1.36 27.7 1.8 29.26 2.48C30.82 3.12 32.1 4.1 33.1 5.42C34.14 6.7 34.66 8.42 34.66 10.58C34.66 12.3 34.28 13.8 33.52 15.08C32.8 16.32 31.82 17.4 30.58 18.32C29.34 19.2 27.98 19.94 26.5 20.54C25.02 21.1 23.56 21.56 22.12 21.92C25.44 22.36 28.04 23.12 29.92 24.2C31.8 25.28 33.12 26.48 33.88 27.8C34.64 29.12 35.02 30.38 35.02 31.58C35.02 33.94 34.4 36.06 33.16 37.94C31.92 39.82 30.28 41.46 28.24 42.86C26.24 44.26 24.02 45.42 21.58 46.34C19.18 47.3 16.78 48.02 14.38 48.5C11.98 48.98 9.82 49.22 7.9 49.22ZM11.92 21.32C14.16 21.24 16.36 20.98 18.52 20.54C20.68 20.1 22.62 19.46 24.34 18.62C26.1 17.74 27.5 16.62 28.54 15.26C29.58 13.86 30.1 12.14 30.1 10.1C30.1 8.18 29.58 6.7 28.54 5.66C27.5 4.62 26.14 3.9 24.46 3.5C22.78 3.1 20.98 2.9 19.06 2.9H18.82C17.46 5.58 16.22 8.5 15.1 11.66C13.98 14.78 12.92 18 11.92 21.32ZM40.9834 45.92C39.1834 45.92 37.9434 45.32 37.2634 44.12C36.6234 42.96 36.3034 41.68 36.3034 40.28C36.3034 39 36.5034 37.7 36.9034 36.38C37.3034 35.02 37.8434 33.76 38.5234 32.6C39.2434 31.44 40.0234 30.52 40.8634 29.84C41.7434 29.12 42.6234 28.76 43.5034 28.76C43.7834 28.76 44.1034 28.82 44.4634 28.94C44.8634 29.02 45.1434 29.16 45.3034 29.36C44.6634 30.16 44.0034 31.2 43.3234 32.48C42.6834 33.72 42.1434 35.02 41.7034 36.38C41.3034 37.74 41.1034 38.98 41.1034 40.1C41.1034 40.9 41.2434 41.56 41.5234 42.08C41.8434 42.6 42.3834 42.86 43.1434 42.86C43.9034 42.86 44.8034 42.44 45.8434 41.6C46.9234 40.72 47.9434 39.72 48.9034 38.6C47.6234 37.44 46.7034 36.18 46.1434 34.82C45.5834 33.42 45.3034 31.74 45.3034 29.78C45.3034 28.94 45.5034 27.98 45.9034 26.9C46.3434 25.82 47.0234 24.88 47.9434 24.08C48.9034 23.28 50.1834 22.88 51.7834 22.88C53.5034 22.88 54.7034 23.36 55.3834 24.32C56.1034 25.28 56.4634 26.42 56.4634 27.74C56.4634 29.22 56.0634 30.88 55.2634 32.72C54.5034 34.56 53.5834 36.3 52.5034 37.94C52.9834 38.18 53.5434 38.3 54.1834 38.3C54.7834 38.3 55.5034 38.16 56.3434 37.88C57.1834 37.6 58.0034 37.14 58.8034 36.5C59.6034 35.82 60.2434 34.92 60.7234 33.8L61.8034 34.58C60.9234 36.62 59.7434 38.12 58.2634 39.08C56.8234 40 55.4034 40.46 54.0034 40.46C53.4834 40.46 52.9634 40.42 52.4434 40.34C51.9234 40.22 51.4434 40.08 51.0034 39.92C49.6434 41.52 48.0834 42.92 46.3234 44.12C44.5634 45.32 42.7834 45.92 40.9834 45.92ZM50.4634 36.68C51.4234 35.28 52.2434 33.78 52.9234 32.18C53.6034 30.58 53.9434 29.1 53.9434 27.74C53.9434 25.98 53.3834 25.1 52.2634 25.1C51.5034 25.1 50.7234 25.64 49.9234 26.72C49.1234 27.8 48.7234 29.16 48.7234 30.8C48.7234 31.64 48.8634 32.66 49.1434 33.86C49.4634 35.06 49.9034 36 50.4634 36.68ZM64.8077 46.76C63.0477 46.76 61.6277 46.24 60.5477 45.2C59.4677 44.16 58.9277 42.58 58.9277 40.46C58.9277 38.82 59.2277 36.78 59.8277 34.34C60.4677 31.9 61.2677 29.38 62.2277 26.78C61.9477 26.7 61.6077 26.64 61.2077 26.6C60.8477 26.52 60.4877 26.4 60.1277 26.24V24.38C60.7677 24.46 61.2877 24.52 61.6877 24.56C62.1277 24.6 62.5677 24.64 63.0077 24.68C63.8477 22.56 64.7477 20.52 65.7077 18.56C66.7077 16.56 67.6877 14.78 68.6477 13.22C69.6477 11.66 70.5877 10.44 71.4677 9.56C72.3477 8.64 73.1277 8.18 73.8077 8.18C74.2077 8.18 74.5877 8.34 74.9477 8.66C75.3077 8.94 75.4877 9.36 75.4877 9.92C75.4877 10.72 75.0677 11.86 74.2277 13.34C73.4277 14.82 72.4277 16.56 71.2277 18.56C70.0277 20.52 68.8677 22.62 67.7477 24.86H69.6077C71.3677 24.86 72.9477 24.84 74.3477 24.8C75.7877 24.72 77.2477 24.6 78.7277 24.44V26.42C76.5277 26.62 74.5077 26.78 72.6677 26.9C70.8277 27.02 69.0677 27.1 67.3877 27.14H66.6677C65.8277 29.1 65.0877 31.12 64.4477 33.2C63.8477 35.24 63.5477 37.24 63.5477 39.2C63.5477 40.84 63.8077 42 64.3277 42.68C64.8477 43.36 65.6677 43.7 66.7877 43.7C68.7877 43.7 70.8277 42.8 72.9077 41C75.0277 39.16 76.8677 36.68 78.4277 33.56L79.2677 34.16C78.2277 36.52 76.9277 38.66 75.3677 40.58C73.8477 42.5 72.1877 44 70.3877 45.08C68.5877 46.2 66.7277 46.76 64.8077 46.76ZM82.0928 46.76C80.3328 46.76 78.9128 46.24 77.8328 45.2C76.7528 44.16 76.2128 42.58 76.2128 40.46C76.2128 38.82 76.5128 36.78 77.1128 34.34C77.7528 31.9 78.5528 29.38 79.5128 26.78C79.2328 26.7 78.8928 26.64 78.4928 26.6C78.1328 26.52 77.7728 26.4 77.4128 26.24V24.38C78.0528 24.46 78.5728 24.52 78.9728 24.56C79.4128 24.6 79.8528 24.64 80.2928 24.68C81.1328 22.56 82.0328 20.52 82.9928 18.56C83.9928 16.56 84.9728 14.78 85.9328 13.22C86.9328 11.66 87.8728 10.44 88.7528 9.56C89.6328 8.64 90.4128 8.18 91.0928 8.18C91.4928 8.18 91.8728 8.34 92.2328 8.66C92.5928 8.94 92.7728 9.36 92.7728 9.92C92.7728 10.72 92.3528 11.86 91.5128 13.34C90.7128 14.82 89.7128 16.56 88.5128 18.56C87.3128 20.52 86.1528 22.62 85.0328 24.86H86.8928C88.6528 24.86 90.2328 24.84 91.6328 24.8C93.0728 24.72 94.5328 24.6 96.0128 24.44V26.42C93.8128 26.62 91.7928 26.78 89.9528 26.9C88.1128 27.02 86.3528 27.1 84.6728 27.14H83.9528C83.1128 29.1 82.3728 31.12 81.7328 33.2C81.1328 35.24 80.8328 37.24 80.8328 39.2C80.8328 40.84 81.0928 42 81.6128 42.68C82.1328 43.36 82.9528 43.7 84.0728 43.7C86.0728 43.7 88.1128 42.8 90.1928 41C92.3128 39.16 94.1528 36.68 95.7128 33.56L96.5528 34.16C95.5128 36.52 94.2128 38.66 92.6528 40.58C91.1328 42.5 89.4728 44 87.6728 45.08C85.8728 46.2 84.0128 46.76 82.0928 46.76ZM99.078 45.8C97.198 45.8 95.878 45.18 95.118 43.94C94.398 42.66 94.038 41.16 94.038 39.44C94.038 37.48 94.398 35.18 95.118 32.54C95.838 29.9 96.778 27.14 97.938 24.26C99.138 21.34 100.438 18.5 101.838 15.74C103.278 12.94 104.718 10.42 106.158 8.18C107.598 5.94 108.918 4.16 110.118 2.84C111.358 1.48 112.358 0.799998 113.118 0.799998C113.638 0.799998 114.078 1.08 114.438 1.64C114.798 2.16 115.078 2.8 115.278 3.56C115.518 4.28 115.638 4.96 115.638 5.6C115.638 6.68 115.358 8.1 114.798 9.86C114.278 11.58 113.518 13.48 112.518 15.56C111.558 17.64 110.398 19.78 109.038 21.98C107.718 24.14 106.238 26.2 104.598 28.16C102.998 30.12 101.278 31.82 99.438 33.26C99.278 34.26 99.118 35.26 98.958 36.26C98.838 37.22 98.778 38.1 98.778 38.9C98.778 40.34 99.018 41.4 99.498 42.08C99.978 42.72 100.598 43.04 101.358 43.04C102.358 43.04 103.378 42.58 104.418 41.66C105.498 40.7 106.518 39.5 107.478 38.06C108.478 36.58 109.338 35.06 110.058 33.5L111.498 34.28C109.778 37.84 107.858 40.66 105.738 42.74C103.618 44.78 101.398 45.8 99.078 45.8ZM100.518 29.54C102.198 27.7 103.778 25.66 105.258 23.42C106.738 21.18 108.038 18.96 109.158 16.76C110.318 14.52 111.218 12.5 111.858 10.7C112.498 8.86 112.838 7.44 112.878 6.44V6.26C112.558 6.26 112.038 6.72 111.318 7.64C110.638 8.52 109.818 9.74 108.858 11.3C107.898 12.86 106.898 14.64 105.858 16.64C104.858 18.64 103.878 20.76 102.918 23C101.998 25.2 101.198 27.38 100.518 29.54ZM115.585 46.64C113.025 46.64 111.045 45.94 109.645 44.54C108.285 43.18 107.605 41.46 107.605 39.38C107.605 37.62 108.045 35.76 108.925 33.8C109.845 31.8 111.065 29.94 112.585 28.22C114.105 26.46 115.785 25.04 117.625 23.96C119.465 22.88 121.305 22.34 123.145 22.34C124.185 22.34 125.165 22.62 126.085 23.18C127.045 23.7 127.525 24.76 127.525 26.36C127.525 27.88 127.085 29.3 126.205 30.62C125.325 31.94 124.145 33.12 122.665 34.16C121.185 35.2 119.545 36.06 117.745 36.74C115.985 37.38 114.205 37.8 112.405 38C112.365 38.16 112.325 38.34 112.285 38.54C112.285 38.7 112.285 38.98 112.285 39.38C112.285 39.58 112.305 39.94 112.345 40.46C112.425 40.94 112.605 41.46 112.885 42.02C113.165 42.58 113.625 43.06 114.265 43.46C114.905 43.86 115.785 44.06 116.905 44.06C118.585 44.06 120.265 43.6 121.945 42.68C123.665 41.72 125.265 40.46 126.745 38.9C128.265 37.34 129.525 35.6 130.525 33.68L131.725 34.64C130.645 37.04 129.245 39.14 127.525 40.94C125.845 42.74 123.965 44.14 121.885 45.14C119.845 46.14 117.745 46.64 115.585 46.64ZM113.065 35.78C114.105 35.66 115.265 35.3 116.545 34.7C117.825 34.1 119.045 33.34 120.205 32.42C121.405 31.5 122.385 30.5 123.145 29.42C123.905 28.3 124.285 27.18 124.285 26.06C124.285 25.62 124.205 25.32 124.045 25.16C123.885 25 123.625 24.92 123.265 24.92C122.345 24.92 121.385 25.26 120.385 25.94C119.385 26.58 118.405 27.44 117.445 28.52C116.485 29.56 115.625 30.72 114.865 32C114.105 33.28 113.505 34.54 113.065 35.78ZM149.294 45.2C147.734 45.2 146.534 44.8 145.694 44C144.894 43.24 144.494 42.26 144.494 41.06C144.494 40.26 144.634 39.42 144.914 38.54C145.194 37.62 145.474 36.7 145.754 35.78C146.034 34.86 146.174 33.98 146.174 33.14C146.174 32.26 145.954 31.66 145.514 31.34C145.114 30.98 144.634 30.8 144.074 30.8C142.874 30.8 141.634 31.3 140.354 32.3C139.114 33.26 137.894 34.48 136.694 35.96C135.534 37.44 134.434 38.98 133.394 40.58C132.354 42.18 131.454 43.62 130.694 44.9C129.934 44.9 129.214 44.76 128.534 44.48C127.854 44.24 127.274 43.8 126.794 43.16C126.834 42.96 127.074 42.36 127.514 41.36C127.914 40.32 128.374 39.1 128.894 37.7C129.414 36.26 129.874 34.76 130.274 33.2C130.674 31.64 130.874 30.22 130.874 28.94C131.154 28.62 131.574 28.3 132.134 27.98C132.734 27.66 133.354 27.5 133.994 27.5C135.394 27.5 136.094 28.1 136.094 29.3C136.094 30.38 135.754 32.16 135.074 34.64C136.114 33.24 137.254 31.92 138.494 30.68C139.734 29.44 141.014 28.44 142.334 27.68C143.694 26.88 145.054 26.48 146.414 26.48C148.134 26.48 149.394 27.06 150.194 28.22C151.034 29.38 151.454 30.66 151.454 32.06C151.454 33.26 151.254 34.38 150.854 35.42C150.454 36.46 150.054 37.44 149.654 38.36C149.294 39.28 149.114 40.18 149.114 41.06C149.114 41.7 149.254 42.16 149.534 42.44C149.854 42.68 150.194 42.8 150.554 42.8C151.514 42.8 152.514 42.34 153.554 41.42C154.594 40.5 155.574 39.34 156.494 37.94C157.454 36.5 158.294 35.06 159.014 33.62L160.034 34.46C159.194 36.42 158.234 38.22 157.154 39.86C156.114 41.46 154.934 42.76 153.614 43.76C152.334 44.72 150.894 45.2 149.294 45.2ZM164.394 46.64C161.834 46.64 159.854 45.94 158.454 44.54C157.094 43.18 156.414 41.46 156.414 39.38C156.414 37.62 156.854 35.76 157.734 33.8C158.654 31.8 159.874 29.94 161.394 28.22C162.914 26.46 164.594 25.04 166.434 23.96C168.274 22.88 170.114 22.34 171.954 22.34C172.994 22.34 173.974 22.62 174.894 23.18C175.854 23.7 176.334 24.76 176.334 26.36C176.334 27.88 175.894 29.3 175.014 30.62C174.134 31.94 172.954 33.12 171.474 34.16C169.994 35.2 168.354 36.06 166.554 36.74C164.794 37.38 163.014 37.8 161.214 38C161.174 38.16 161.134 38.34 161.094 38.54C161.094 38.7 161.094 38.98 161.094 39.38C161.094 39.58 161.114 39.94 161.154 40.46C161.234 40.94 161.414 41.46 161.694 42.02C161.974 42.58 162.434 43.06 163.074 43.46C163.714 43.86 164.594 44.06 165.714 44.06C167.394 44.06 169.074 43.6 170.754 42.68C172.474 41.72 174.074 40.46 175.554 38.9C177.074 37.34 178.334 35.6 179.334 33.68L180.534 34.64C179.454 37.04 178.054 39.14 176.334 40.94C174.654 42.74 172.774 44.14 170.694 45.14C168.654 46.14 166.554 46.64 164.394 46.64ZM161.874 35.78C162.914 35.66 164.074 35.3 165.354 34.7C166.634 34.1 167.854 33.34 169.014 32.42C170.214 31.5 171.194 30.5 171.954 29.42C172.714 28.3 173.094 27.18 173.094 26.06C173.094 25.62 173.014 25.32 172.854 25.16C172.694 25 172.434 24.92 172.074 24.92C171.154 24.92 170.194 25.26 169.194 25.94C168.194 26.58 167.214 27.44 166.254 28.52C165.294 29.56 164.434 30.72 163.674 32C162.914 33.28 162.314 34.54 161.874 35.78ZM184.663 47.36C182.583 47.36 180.863 46.7 179.503 45.38C178.183 44.1 177.523 42.12 177.523 39.44C177.523 37.48 177.903 35.56 178.663 33.68C179.423 31.8 180.443 30.12 181.723 28.64C183.003 27.12 184.423 25.92 185.983 25.04C187.583 24.16 189.203 23.72 190.843 23.72C192.523 23.72 193.723 24.14 194.443 24.98C195.203 25.82 195.583 26.8 195.583 27.92C195.583 29.04 195.303 30.14 194.743 31.22C194.223 32.26 193.503 32.78 192.583 32.78C191.823 32.78 191.203 32.4 190.723 31.64C191.123 31.36 191.543 30.84 191.983 30.08C192.423 29.32 192.643 28.34 192.643 27.14C192.643 26.46 192.263 26.12 191.503 26.12C190.503 26.12 189.443 26.58 188.323 27.5C187.243 28.38 186.223 29.54 185.263 30.98C184.343 32.38 183.583 33.88 182.983 35.48C182.423 37.04 182.143 38.48 182.143 39.8C182.143 40.92 182.423 41.96 182.983 42.92C183.583 43.84 184.723 44.3 186.403 44.3C187.923 44.3 189.503 43.86 191.143 42.98C192.783 42.1 194.323 40.88 195.763 39.32C197.203 37.72 198.363 35.82 199.243 33.62L200.443 34.7C199.483 37.14 198.143 39.32 196.423 41.24C194.743 43.12 192.863 44.6 190.783 45.68C188.743 46.8 186.703 47.36 184.663 47.36ZM216.883 46.28C215.643 46.28 214.563 45.88 213.643 45.08C212.723 44.28 211.983 43.28 211.423 42.08C210.863 40.88 210.443 39.66 210.163 38.42C209.883 37.14 209.743 36.04 209.743 35.12C210.303 35 211.003 34.82 211.843 34.58C212.683 34.34 213.543 34.02 214.423 33.62C215.303 33.18 216.023 32.66 216.583 32.06C217.183 31.42 217.483 30.66 217.483 29.78C217.483 29.06 217.243 28.48 216.763 28.04C216.323 27.6 215.683 27.38 214.843 27.38C213.723 27.38 212.663 27.76 211.663 28.52C210.663 29.24 209.723 30.2 208.843 31.4C208.003 32.6 207.223 33.9 206.503 35.3C205.823 36.7 205.203 38.06 204.643 39.38C204.123 40.7 203.683 41.84 203.323 42.8C202.883 44 202.463 44.8 202.063 45.2C201.663 45.64 201.083 45.86 200.323 45.86C200.043 45.86 199.703 45.78 199.303 45.62C198.943 45.46 198.623 45.06 198.343 44.42C198.103 43.78 197.983 42.76 197.983 41.36C197.983 38.92 198.323 36.24 199.003 33.32C199.683 30.4 200.583 27.44 201.703 24.44C202.863 21.4 204.123 18.5 205.483 15.74C206.843 12.98 208.223 10.5 209.623 8.3C211.023 6.1 212.323 4.36 213.523 3.08C214.763 1.8 215.783 1.16 216.583 1.16C217.263 1.16 217.823 1.58 218.263 2.42C218.743 3.22 218.983 4.26 218.983 5.54C218.983 6.9 218.683 8.42 218.083 10.1C217.483 11.74 216.623 13.42 215.503 15.14C214.423 16.82 213.123 18.42 211.603 19.94C210.083 21.46 208.403 22.76 206.563 23.84C205.443 26.44 204.583 29.02 203.983 31.58C203.383 34.1 203.003 36.34 202.843 38.3C203.563 36.66 204.383 34.98 205.303 33.26C206.223 31.54 207.243 29.94 208.363 28.46C209.483 26.94 210.683 25.72 211.963 24.8C213.283 23.88 214.683 23.42 216.163 23.42C217.763 23.42 219.163 23.98 220.363 25.1C221.563 26.22 222.163 27.62 222.163 29.3C222.163 30.5 221.843 31.54 221.203 32.42C220.563 33.3 219.763 34.04 218.803 34.64C217.883 35.2 216.943 35.62 215.983 35.9C215.023 36.18 214.203 36.34 213.523 36.38C213.683 37.1 213.923 38.02 214.243 39.14C214.603 40.26 215.103 41.26 215.743 42.14C216.383 42.98 217.223 43.4 218.263 43.4C219.263 43.4 220.283 42.94 221.323 42.02C222.403 41.1 223.443 39.88 224.443 38.36C225.483 36.84 226.403 35.16 227.203 33.32L228.043 34.34C227.363 36.34 226.423 38.26 225.223 40.1C224.063 41.94 222.763 43.42 221.323 44.54C219.883 45.7 218.403 46.28 216.883 46.28ZM208.303 19.76C209.383 18.8 210.523 17.62 211.723 16.22C212.923 14.78 213.943 13.26 214.783 11.66C215.663 10.02 216.123 8.46 216.163 6.98V6.8C215.763 6.96 215.123 7.66 214.243 8.9C213.403 10.1 212.463 11.64 211.423 13.52C210.383 15.4 209.343 17.48 208.303 19.76Z" fill="black"/>
</svg>
