<svg width="197" height="45" viewBox="0 0 197 45" fill="none" xmlns="http://www.w3.org/2000/svg">
<path d="M9.932 36.328C8.348 36.328 6.852 36.0347 5.444 35.448C4.036 34.8907 2.892 34.0253 2.012 32.852C1.16133 31.6787 0.736 30.212 0.736 28.452C0.736 26.9267 1.02933 25.7387 1.616 24.888C2.232 24.0373 2.98 23.436 3.86 23.084C4.74 22.732 5.576 22.556 6.368 22.556C5.576 23.4067 4.97467 24.3453 4.564 25.372C4.15333 26.3987 3.948 27.4253 3.948 28.452C3.948 29.5373 4.18267 30.5493 4.652 31.488C5.15067 32.4267 5.89867 33.1747 6.896 33.732C7.89333 34.3187 9.15467 34.612 10.68 34.612C12 34.612 13.2907 34.3627 14.552 33.864C15.8133 33.3947 16.84 32.6907 17.632 31.752C18.4533 30.784 18.864 29.596 18.864 28.188C18.864 26.9267 18.5413 25.8413 17.896 24.932C17.2507 24.0227 16.4147 23.216 15.388 22.512C14.3907 21.808 13.32 21.1333 12.176 20.488C11.032 19.8427 9.94667 19.168 8.92 18.464C7.92267 17.7307 7.10133 16.8947 6.456 15.956C5.81067 15.0173 5.488 13.888 5.488 12.568C5.488 11.336 5.78133 10.0453 6.368 8.696C6.95467 7.34667 7.79067 6.07067 8.876 4.868C9.99067 3.66533 11.3107 2.69733 12.836 1.964C14.3907 1.20133 16.1213 0.819999 18.028 0.819999C19.7587 0.819999 20.9613 1.24533 21.636 2.096C22.3107 2.91733 22.648 3.95867 22.648 5.22C22.648 6.276 22.4573 7.42 22.076 8.652C21.724 9.85466 21.284 11.0133 20.756 12.128C20.228 13.2133 19.7293 14.1373 19.26 14.9C18.732 14.7827 18.3507 14.5627 18.116 14.24C17.9107 13.888 17.808 13.4773 17.808 13.008C17.808 12.392 17.94 11.688 18.204 10.896C18.468 10.104 18.7613 9.28267 19.084 8.432C19.436 7.58133 19.744 6.76 20.008 5.968C20.272 5.14666 20.404 4.41333 20.404 3.768C20.404 3.18133 20.228 2.72667 19.876 2.404C19.524 2.052 18.8787 1.876 17.94 1.876C16.5613 1.876 15.2853 2.19867 14.112 2.844C12.9387 3.48933 11.912 4.32533 11.032 5.352C10.152 6.34933 9.46267 7.40533 8.964 8.52C8.49467 9.63467 8.26 10.6467 8.26 11.556C8.26 12.6413 8.568 13.58 9.184 14.372C9.82933 15.1347 10.6507 15.8387 11.648 16.484C12.6453 17.1 13.7013 17.7307 14.816 18.376C15.96 18.992 17.0307 19.6813 18.028 20.444C19.0253 21.2067 19.832 22.116 20.448 23.172C21.0933 24.1987 21.416 25.46 21.416 26.956C21.416 28.4813 21.0787 29.8307 20.404 31.004C19.7293 32.148 18.82 33.116 17.676 33.908C16.5613 34.7 15.3293 35.3013 13.98 35.712C12.6307 36.1227 11.2813 36.328 9.932 36.328ZM33.0378 13.492C32.5685 13.492 32.1432 13.3747 31.7618 13.14C31.4098 12.9053 31.2338 12.5387 31.2338 12.04C31.2338 11.424 31.5858 10.896 32.2898 10.456C33.0232 9.98667 33.7418 9.752 34.4458 9.752C34.8858 9.752 35.2378 9.85467 35.5018 10.06C35.7658 10.2653 35.8978 10.6173 35.8978 11.116C35.8978 11.6733 35.5898 12.216 34.9738 12.744C34.3872 13.2427 33.7418 13.492 33.0378 13.492ZM27.7578 33.644C26.6138 33.644 25.7632 33.2773 25.2058 32.544C24.6485 31.84 24.3698 30.9747 24.3698 29.948C24.3698 29.2733 24.4872 28.4227 24.7218 27.396C24.9858 26.3693 25.3232 25.2987 25.7338 24.184C26.1445 23.04 26.6138 21.9693 27.1418 20.972C27.6992 19.9747 28.2858 19.168 28.9018 18.552C29.5178 17.9067 30.1192 17.584 30.7058 17.584C30.9698 17.584 31.1898 17.672 31.3658 17.848C31.5712 17.9947 31.6738 18.2293 31.6738 18.552C31.6738 18.904 31.4392 19.476 30.9698 20.268C30.5298 21.06 30.0018 21.9693 29.3858 22.996C28.7698 24.0227 28.2272 25.108 27.7578 26.252C27.3178 27.3667 27.0978 28.4373 27.0978 29.464C27.0978 30.52 27.2738 31.224 27.6258 31.576C27.9778 31.928 28.5205 32.104 29.2538 32.104C30.2512 32.104 31.3072 31.6053 32.4218 30.608C33.5658 29.6107 34.7685 27.8653 36.0298 25.372L36.4258 25.812C35.5752 28.3347 34.3432 30.2707 32.7298 31.62C31.1458 32.9693 29.4885 33.644 27.7578 33.644ZM38.8551 33.82C37.5938 33.82 36.6845 33.38 36.1271 32.5C35.5991 31.6493 35.3351 30.5787 35.3351 29.288C35.3351 27.88 35.5991 26.208 36.1271 24.272C36.6551 22.336 37.3445 20.2973 38.1951 18.156C39.0751 16.0147 40.0285 13.932 41.0551 11.908C42.0818 9.85466 43.1085 7.992 44.1351 6.32C45.1618 4.648 46.1005 3.31333 46.9511 2.316C47.8311 1.31867 48.5205 0.819999 49.0191 0.819999C49.3418 0.819999 49.6058 1.01067 49.8111 1.392C50.0165 1.744 50.1778 2.184 50.2951 2.712C50.4125 3.21067 50.4711 3.66533 50.4711 4.076C50.4711 4.868 50.2658 5.90933 49.8551 7.2C49.4738 8.46133 48.9165 9.884 48.1831 11.468C47.4791 13.0227 46.6285 14.6067 45.6311 16.22C44.6631 17.804 43.5925 19.3293 42.4191 20.796C41.2751 22.2627 40.0578 23.524 38.7671 24.58C38.5911 25.372 38.4445 26.1493 38.3271 26.912C38.2391 27.6453 38.1951 28.3493 38.1951 29.024C38.1951 31.2827 38.8405 32.412 40.1311 32.412C40.9231 32.412 41.7005 32.06 42.4631 31.356C43.2551 30.652 43.9885 29.772 44.6631 28.716C45.3671 27.6307 45.9685 26.516 46.4671 25.372L47.1271 25.724C45.9538 28.2173 44.6778 30.1973 43.2991 31.664C41.9205 33.1013 40.4391 33.82 38.8551 33.82ZM39.1631 23.084C40.1898 22.0573 41.1871 20.884 42.1551 19.564C43.1231 18.2147 44.0178 16.8213 44.8391 15.384C45.6898 13.9467 46.4378 12.5533 47.0831 11.204C47.7285 9.85467 48.2271 8.652 48.5791 7.596C48.9311 6.51066 49.1071 5.67466 49.1071 5.088C49.1071 4.79467 49.0631 4.604 48.9751 4.516C48.9165 4.428 48.8578 4.384 48.7991 4.384C48.5645 4.384 48.1538 4.76533 47.5671 5.528C47.0098 6.26133 46.3498 7.25867 45.5871 8.52C44.8245 9.78133 44.0471 11.2187 43.2551 12.832C42.4631 14.4453 41.7005 16.132 40.9671 17.892C40.2631 19.652 39.6618 21.3827 39.1631 23.084ZM54.0496 13.492C53.5802 13.492 53.1549 13.3747 52.7736 13.14C52.4216 12.9053 52.2456 12.5387 52.2456 12.04C52.2456 11.424 52.5976 10.896 53.3016 10.456C54.0349 9.98667 54.7536 9.752 55.4576 9.752C55.8976 9.752 56.2496 9.85467 56.5136 10.06C56.7776 10.2653 56.9096 10.6173 56.9096 11.116C56.9096 11.6733 56.6016 12.216 55.9856 12.744C55.3989 13.2427 54.7536 13.492 54.0496 13.492ZM48.7696 33.644C47.6256 33.644 46.7749 33.2773 46.2176 32.544C45.6602 31.84 45.3816 30.9747 45.3816 29.948C45.3816 29.2733 45.4989 28.4227 45.7336 27.396C45.9976 26.3693 46.3349 25.2987 46.7456 24.184C47.1562 23.04 47.6256 21.9693 48.1536 20.972C48.7109 19.9747 49.2976 19.168 49.9136 18.552C50.5296 17.9067 51.1309 17.584 51.7176 17.584C51.9816 17.584 52.2016 17.672 52.3776 17.848C52.5829 17.9947 52.6856 18.2293 52.6856 18.552C52.6856 18.904 52.4509 19.476 51.9816 20.268C51.5416 21.06 51.0136 21.9693 50.3976 22.996C49.7816 24.0227 49.2389 25.108 48.7696 26.252C48.3296 27.3667 48.1096 28.4373 48.1096 29.464C48.1096 30.52 48.2856 31.224 48.6376 31.576C48.9896 31.928 49.5322 32.104 50.2656 32.104C51.2629 32.104 52.3189 31.6053 53.4336 30.608C54.5776 29.6107 55.7802 27.8653 57.0416 25.372L57.4376 25.812C56.5869 28.3347 55.3549 30.2707 53.7416 31.62C52.1576 32.9693 50.5002 33.644 48.7696 33.644ZM60.9228 34.964C59.5148 34.964 58.3415 34.4947 57.4028 33.556C56.4642 32.6173 55.9948 31.2093 55.9948 29.332C55.9948 27.8653 56.2735 26.4427 56.8308 25.064C57.4175 23.656 58.1802 22.3947 59.1188 21.28C60.0575 20.1653 61.0988 19.2853 62.2428 18.64C63.3868 17.9653 64.5162 17.628 65.6308 17.628C66.8335 17.628 67.6548 17.98 68.0948 18.684C68.5348 19.388 68.7548 20.1213 68.7548 20.884C68.7548 21.7347 68.5495 22.4827 68.1388 23.128C67.7575 23.7733 67.2295 24.096 66.5548 24.096C66.0562 24.096 65.6308 23.876 65.2788 23.436C65.7188 23.2013 66.1002 22.732 66.4228 22.028C66.7455 21.2947 66.9068 20.6053 66.9068 19.96C66.9068 19.608 66.8335 19.344 66.6868 19.168C66.5695 18.9627 66.3202 18.86 65.9388 18.86C65.1468 18.86 64.3255 19.212 63.4748 19.916C62.6535 20.62 61.8762 21.5293 61.1428 22.644C60.4388 23.7587 59.8522 24.932 59.3828 26.164C58.9428 27.396 58.7228 28.5547 58.7228 29.64C58.7228 30.5493 58.9428 31.3853 59.3828 32.148C59.8228 32.9107 60.6735 33.292 61.9348 33.292C63.1082 33.292 64.2815 32.9693 65.4548 32.324C66.6575 31.6787 67.7722 30.7547 68.7988 29.552C69.8255 28.3493 70.6468 26.9413 71.2628 25.328L71.8348 25.768C71.1602 27.528 70.2362 29.112 69.0628 30.52C67.8895 31.8987 66.5988 32.984 65.1908 33.776C63.7828 34.568 62.3602 34.964 60.9228 34.964ZM73.4735 33.908C72.2122 33.908 71.3175 33.512 70.7895 32.72C70.2615 31.9573 69.9975 31.0187 69.9975 29.904C69.9975 28.9947 70.1442 28.056 70.4375 27.088C70.7308 26.12 71.1122 25.2107 71.5815 24.36C72.0802 23.5093 72.6228 22.82 73.2095 22.292C73.8255 21.764 74.4415 21.5 75.0575 21.5C75.3215 21.5 75.6295 21.5733 75.9815 21.72C75.7175 21.9547 75.3948 22.3947 75.0135 23.04C74.6615 23.656 74.3242 24.3747 74.0015 25.196C73.6788 25.988 73.4002 26.78 73.1655 27.572C72.9602 28.364 72.8575 29.0387 72.8575 29.596C72.8575 30.476 73.0042 31.1213 73.2975 31.532C73.5908 31.9133 73.9722 32.104 74.4415 32.104C75.0575 32.104 75.7908 31.7813 76.6415 31.136C77.4922 30.4613 78.3282 29.6107 79.1495 28.584C78.3282 27.9093 77.6828 27.0293 77.2135 25.944C76.7735 24.8293 76.5535 23.7 76.5535 22.556C76.5535 21.588 76.7148 20.6787 77.0375 19.828C77.3895 18.9773 77.8882 18.3027 78.5335 17.804C79.1788 17.276 79.9562 17.012 80.8655 17.012C82.0682 17.012 82.8748 17.3347 83.2855 17.98C83.6962 18.6253 83.9015 19.432 83.9015 20.4C83.9015 21.544 83.6228 22.82 83.0655 24.228C82.5082 25.6067 81.8042 26.9413 80.9535 28.232C81.4815 28.5253 82.0388 28.672 82.6255 28.672C83.3002 28.672 84.1215 28.452 85.0895 28.012C86.0575 27.5427 86.8055 26.7067 87.3335 25.504L87.8615 25.944C87.2748 27.3227 86.4388 28.3053 85.3535 28.892C84.2975 29.4493 83.2855 29.728 82.3175 29.728C81.5255 29.728 80.8215 29.5813 80.2055 29.288C79.2082 30.608 78.1082 31.708 76.9055 32.588C75.7322 33.468 74.5882 33.908 73.4735 33.908ZM79.9415 27.44C80.6748 26.3547 81.2762 25.2253 81.7455 24.052C82.2442 22.8493 82.4935 21.72 82.4935 20.664C82.4935 19.8133 82.3615 19.1973 82.0975 18.816C81.8628 18.4053 81.5548 18.2 81.1735 18.2C80.5868 18.2 79.9855 18.6253 79.3695 19.476C78.7535 20.3267 78.4455 21.3973 78.4455 22.688C78.4455 23.5387 78.5628 24.404 78.7975 25.284C79.0615 26.1347 79.4428 26.8533 79.9415 27.44ZM100.72 33.38C99.6931 33.38 98.9158 33.116 98.3878 32.588C97.8891 32.06 97.6398 31.3853 97.6398 30.564C97.6398 29.948 97.7425 29.3027 97.9478 28.628C98.1825 27.9533 98.4025 27.264 98.6078 26.56C98.8131 25.8267 98.9158 25.1227 98.9158 24.448C98.9158 23.6267 98.7398 23.0693 98.3878 22.776C98.0651 22.4533 97.6545 22.292 97.1558 22.292C96.2465 22.292 95.3225 22.6733 94.3838 23.436C93.4451 24.1693 92.5358 25.1227 91.6558 26.296C90.7758 27.44 89.9545 28.628 89.1918 29.86C88.4291 31.092 87.7545 32.192 87.1678 33.16C86.6985 33.16 86.2585 33.072 85.8478 32.896C85.4078 32.7493 85.0705 32.5147 84.8358 32.192C84.8358 32.0453 84.9971 31.5907 85.3198 30.828C85.6131 30.0653 85.9651 29.1267 86.3758 28.012C86.7865 26.8973 87.1531 25.7533 87.4758 24.58C87.7985 23.4067 87.9598 22.336 87.9598 21.368C88.1358 21.1627 88.4145 20.9573 88.7958 20.752C89.1771 20.5467 89.5731 20.444 89.9838 20.444C90.7758 20.444 91.1718 20.8253 91.1718 21.588C91.1718 22.0573 91.0398 22.8493 90.7758 23.964C90.5118 25.0493 90.1745 26.1933 89.7638 27.396C90.5558 26.1933 91.4358 25.0053 92.4038 23.832C93.4011 22.6293 94.4571 21.632 95.5718 20.84C96.6865 20.048 97.8011 19.652 98.9158 19.652C100.06 19.652 100.881 20.0627 101.38 20.884C101.908 21.7053 102.172 22.6147 102.172 23.612C102.172 24.5213 102.025 25.372 101.732 26.164C101.438 26.9267 101.13 27.6747 100.808 28.408C100.514 29.112 100.368 29.8307 100.368 30.564C100.368 31.18 100.485 31.62 100.72 31.884C100.984 32.1187 101.306 32.236 101.688 32.236C102.421 32.236 103.154 31.8987 103.888 31.224C104.621 30.52 105.325 29.64 106 28.584C106.704 27.528 107.32 26.4573 107.848 25.372L108.332 25.944C107.422 28.0853 106.337 29.86 105.076 31.268C103.814 32.676 102.362 33.38 100.72 33.38ZM119.182 36.328C118.536 35.9467 118.126 35.536 117.95 35.096C117.774 34.6853 117.686 34.3333 117.686 34.04C117.686 33.2187 117.979 32.104 118.566 30.696C119.182 29.288 119.988 27.6893 120.986 25.9C122.012 24.0813 123.142 22.204 124.374 20.268C123.288 20.18 122.364 20.1213 121.602 20.092C120.839 20.0627 120.179 20.048 119.622 20.048H118.082C118.404 19.1973 118.962 18.6107 119.754 18.288C120.575 17.936 121.543 17.76 122.658 17.76C123.156 17.76 123.67 17.7893 124.198 17.848C124.726 17.9067 125.268 17.98 125.826 18.068C127.322 15.8093 128.847 13.624 130.402 11.512C131.986 9.37067 133.452 7.47867 134.802 5.836C136.18 4.164 137.324 2.90266 138.234 2.052C139.084 1.23067 139.788 0.819999 140.346 0.819999C140.962 0.819999 141.739 1.28933 142.678 2.228C142.384 2.46267 142.003 3.09333 141.534 4.12C141.094 5.11733 140.61 6.37867 140.082 7.904C139.583 9.42933 139.084 11.1013 138.586 12.92C138.087 14.7387 137.618 16.6013 137.178 18.508C136.767 20.3853 136.43 22.1747 136.166 23.876C135.931 25.5773 135.814 27.0733 135.814 28.364C135.814 29.4787 135.931 30.344 136.166 30.96C136.43 31.576 136.855 31.884 137.442 31.884C138.204 31.884 139.07 31.356 140.038 30.3C141.006 29.244 142.062 27.6013 143.206 25.372L143.646 25.812C142.766 28.1587 141.636 30.08 140.258 31.576C138.908 33.072 137.5 33.82 136.034 33.82C134.831 33.82 133.951 33.292 133.394 32.236C132.866 31.1507 132.602 29.7133 132.602 27.924C132.602 26.0467 132.851 23.8613 133.35 21.368C132.059 21.1627 130.871 21.0013 129.786 20.884C128.73 20.7373 127.747 20.6053 126.838 20.488C125.459 23.04 124.11 25.6653 122.79 28.364C121.499 31.0627 120.296 33.7173 119.182 36.328ZM133.658 19.828C134.098 17.892 134.611 15.9413 135.198 13.976C135.784 11.9813 136.4 10.0893 137.046 8.3C137.72 6.51067 138.351 4.94133 138.938 3.592C138.028 4.14933 136.972 5.14667 135.77 6.584C134.596 7.992 133.35 9.72267 132.03 11.776C130.71 13.8 129.36 16.0293 127.982 18.464C128.979 18.6693 129.962 18.904 130.93 19.168C131.927 19.4027 132.836 19.6227 133.658 19.828ZM145.976 33.82C144.715 33.82 143.806 33.38 143.248 32.5C142.72 31.6493 142.456 30.5787 142.456 29.288C142.456 27.88 142.72 26.208 143.248 24.272C143.776 22.336 144.466 20.2973 145.316 18.156C146.196 16.0147 147.15 13.932 148.176 11.908C149.203 9.85466 150.23 7.992 151.256 6.32C152.283 4.648 153.222 3.31333 154.072 2.316C154.952 1.31867 155.642 0.819999 156.14 0.819999C156.463 0.819999 156.727 1.01067 156.932 1.392C157.138 1.744 157.299 2.184 157.416 2.712C157.534 3.21067 157.592 3.66533 157.592 4.076C157.592 4.868 157.387 5.90933 156.976 7.2C156.595 8.46133 156.038 9.884 155.304 11.468C154.6 13.0227 153.75 14.6067 152.752 16.22C151.784 17.804 150.714 19.3293 149.54 20.796C148.396 22.2627 147.179 23.524 145.888 24.58C145.712 25.372 145.566 26.1493 145.448 26.912C145.36 27.6453 145.316 28.3493 145.316 29.024C145.316 31.2827 145.962 32.412 147.252 32.412C147.956 32.412 148.66 32.1187 149.364 31.532C150.098 30.916 150.787 30.1387 151.432 29.2C152.107 28.2613 152.694 27.264 153.192 26.208C153.486 24.6827 153.926 23.0547 154.512 21.324C155.099 19.564 155.774 17.804 156.536 16.044C157.299 14.284 158.106 12.5973 158.956 10.984C159.807 9.37067 160.643 7.93333 161.464 6.672C162.286 5.41066 163.048 4.41333 163.752 3.68C164.456 2.94667 165.028 2.58 165.468 2.58C165.791 2.58 166.055 2.77067 166.26 3.152C166.466 3.504 166.627 3.944 166.744 4.472C166.862 4.97067 166.92 5.42533 166.92 5.836C166.92 6.804 166.671 8.08 166.172 9.664C165.674 11.2187 164.955 12.8907 164.016 14.68C163.107 16.4693 161.992 18.244 160.672 20.004C159.382 21.7347 157.93 23.26 156.316 24.58C156.14 25.372 155.994 26.1493 155.876 26.912C155.788 27.6453 155.744 28.3493 155.744 29.024C155.744 31.2827 156.39 32.412 157.68 32.412C158.472 32.412 159.25 32.06 160.012 31.356C160.804 30.652 161.538 29.772 162.212 28.716C162.916 27.6307 163.518 26.516 164.016 25.372L164.676 25.724C163.503 28.2173 162.227 30.1973 160.848 31.664C159.47 33.1013 157.988 33.82 156.404 33.82C154.996 33.82 154.028 33.292 153.5 32.236C152.972 31.18 152.782 29.86 152.928 28.276C151.902 30.0067 150.802 31.3707 149.628 32.368C148.484 33.336 147.267 33.82 145.976 33.82ZM146.284 23.084C147.311 22.0573 148.308 20.884 149.276 19.564C150.244 18.2147 151.139 16.8213 151.96 15.384C152.811 13.9467 153.559 12.5533 154.204 11.204C154.85 9.85467 155.348 8.652 155.7 7.596C156.052 6.51066 156.228 5.67466 156.228 5.088C156.228 4.79467 156.184 4.604 156.096 4.516C156.038 4.428 155.979 4.384 155.92 4.384C155.686 4.384 155.275 4.76533 154.688 5.528C154.131 6.26133 153.471 7.25867 152.708 8.52C151.946 9.78133 151.168 11.2187 150.376 12.832C149.584 14.4453 148.822 16.132 148.088 17.892C147.384 19.652 146.783 21.3827 146.284 23.084ZM156.712 23.084C158.003 21.7933 159.176 20.3707 160.232 18.816C161.318 17.2613 162.256 15.7067 163.048 14.152C163.84 12.5973 164.456 11.1747 164.896 9.884C165.336 8.59333 165.556 7.58133 165.556 6.848C165.556 6.55467 165.512 6.364 165.424 6.276C165.366 6.188 165.307 6.144 165.248 6.144C164.955 6.144 164.456 6.628 163.752 7.596C163.078 8.53466 162.3 9.81067 161.42 11.424C160.57 13.0373 159.719 14.856 158.868 16.88C158.047 18.904 157.328 20.972 156.712 23.084ZM167.873 34.436C166.084 34.436 164.734 33.9373 163.825 32.94C162.945 31.972 162.505 30.7693 162.505 29.332C162.505 28.012 162.828 26.6187 163.473 25.152C164.148 23.6853 165.028 22.3067 166.113 21.016C167.228 19.7253 168.445 18.684 169.765 17.892C171.085 17.0707 172.39 16.66 173.681 16.66C174.356 16.66 174.972 16.836 175.529 17.188C176.116 17.54 176.409 18.2587 176.409 19.344C176.409 20.4587 176.072 21.5147 175.397 22.512C174.752 23.48 173.886 24.3453 172.801 25.108C171.745 25.8707 170.572 26.5013 169.281 27C168.02 27.4693 166.758 27.7627 165.497 27.88C165.438 28.1733 165.394 28.452 165.365 28.716C165.336 28.98 165.321 29.2293 165.321 29.464C165.321 30.3733 165.556 31.224 166.025 32.016C166.524 32.7787 167.448 33.16 168.797 33.16C170.058 33.16 171.305 32.808 172.537 32.104C173.769 31.3707 174.913 30.4173 175.969 29.244C177.025 28.0707 177.92 26.78 178.653 25.372L179.181 25.768C178.389 27.528 177.377 29.0533 176.145 30.344C174.942 31.6347 173.622 32.632 172.185 33.336C170.777 34.0693 169.34 34.436 167.873 34.436ZM165.717 27.044C166.509 26.78 167.404 26.3987 168.401 25.9C169.398 25.372 170.352 24.756 171.261 24.052C172.2 23.348 172.962 22.5707 173.549 21.72C174.165 20.8693 174.473 19.9747 174.473 19.036C174.473 18.7133 174.414 18.464 174.297 18.288C174.18 18.112 173.93 18.024 173.549 18.024C172.845 18.024 172.097 18.3027 171.305 18.86C170.513 19.388 169.75 20.092 169.017 20.972C168.284 21.852 167.624 22.82 167.037 23.876C166.45 24.932 166.01 25.988 165.717 27.044ZM179.665 44.82C178.932 44.82 178.287 44.6147 177.729 44.204C177.172 43.8227 176.893 43.2507 176.893 42.488C176.893 41.2267 177.289 40.1413 178.081 39.232C178.903 38.3227 179.959 37.4867 181.249 36.724C182.569 35.9907 183.963 35.2573 185.429 34.524C185.84 33.4387 186.251 32.236 186.661 30.916C187.101 29.5667 187.512 28.0853 187.893 26.472C186.955 27.9973 185.943 29.3173 184.857 30.432C183.801 31.5173 182.672 32.06 181.469 32.06C180.619 32.06 179.812 31.7813 179.049 31.224C178.316 30.6373 177.949 29.728 177.949 28.496C177.949 27.6747 178.081 26.7213 178.345 25.636C178.639 24.5507 178.991 23.4947 179.401 22.468C179.812 21.4413 180.237 20.5907 180.677 19.916C181.117 19.2413 181.499 18.904 181.821 18.904C181.939 18.904 182.144 18.948 182.437 19.036C182.76 19.124 183.053 19.256 183.317 19.432C183.611 19.5787 183.757 19.74 183.757 19.916C183.493 20.2973 183.2 20.84 182.877 21.544C182.555 22.248 182.232 23.04 181.909 23.92C181.616 24.7707 181.367 25.6067 181.161 26.428C180.956 27.2493 180.853 27.9533 180.853 28.54C180.853 29.068 180.971 29.4933 181.205 29.816C181.44 30.1387 181.851 30.3 182.437 30.3C182.995 30.3 183.611 30.036 184.285 29.508C184.989 28.9507 185.679 28.2467 186.353 27.396C187.057 26.5453 187.703 25.636 188.289 24.668C188.377 24.3453 188.451 24.0227 188.509 23.7C188.597 23.348 188.671 22.996 188.729 22.644C188.817 22.2333 189.023 21.764 189.345 21.236C189.697 20.6787 190.24 20.4 190.973 20.4C191.237 20.4 191.545 20.444 191.897 20.532C191.897 21.0013 191.751 21.8813 191.457 23.172C191.193 24.4333 190.797 25.9147 190.269 27.616C189.771 29.3173 189.169 31.0627 188.465 32.852C189.844 32.324 191.193 31.4587 192.513 30.256C193.833 29.024 194.904 27.396 195.725 25.372L196.297 25.812C195.857 27.22 195.183 28.452 194.273 29.508C193.393 30.5347 192.396 31.4293 191.281 32.192C190.167 32.9253 189.067 33.5413 187.981 34.04C187.219 35.9173 186.383 37.6773 185.473 39.32C184.593 40.9627 183.655 42.2827 182.657 43.28C181.689 44.3067 180.692 44.82 179.665 44.82ZM179.445 43.412C179.885 43.412 180.619 42.8253 181.645 41.652C182.701 40.508 183.816 38.484 184.989 35.58C183.787 36.2253 182.672 36.856 181.645 37.472C180.619 38.1173 179.797 38.8067 179.181 39.54C178.565 40.2733 178.257 41.124 178.257 42.092C178.257 42.3267 178.345 42.6053 178.521 42.928C178.697 43.2507 179.005 43.412 179.445 43.412Z" fill="#1976D2"/>
</svg>
